M48
; DRILL file {KiCad 6.0.4-6f826c9f35~116~ubuntu20.04.1} date Rab 13 Apr 2022 10:42:55 
; FORMAT={-:-/ absolute / inch / decimal}
; #@! TF.CreationDate,2022-04-13T10:42:55+07:00
; #@! TF.GenerationSoftware,Kicad,Pcbnew,6.0.4-6f826c9f35~116~ubuntu20.04.1
; #@! TF.FileFunction,Plated,1,4,PTH
FMAT,2
INCH
; #@! TA.AperFunction,Plated,PTH,ViaDrill
T1C0.0079
; #@! TA.AperFunction,Plated,PTH,ComponentDrill
T2C0.0354
; #@! TA.AperFunction,Plated,PTH,ComponentDrill
T3C0.0394
; #@! TA.AperFunction,Plated,PTH,ComponentDrill
T4C0.0472
; #@! TA.AperFunction,Plated,PTH,ComponentDrill
T5C0.0512
%
G90
G05
T1
X4.2488Y-2.7036
X4.2496Y-4.0454
X4.2798Y-2.7036
X4.2806Y-4.0454
X4.3118Y-2.7036
X4.3126Y-4.0454
X4.3438Y-2.7036
X4.3446Y-4.0454
X4.3758Y-2.7036
X4.3766Y-4.0454
X4.4058Y-2.7036
X4.4066Y-4.0454
X4.437Y-2.7045
X4.4377Y-4.0462
X4.469Y-2.7045
X4.4697Y-4.0462
X4.501Y-2.7065
X4.5017Y-4.0482
X4.533Y-2.7065
X4.5337Y-4.0482
X4.563Y-2.7065
X4.5637Y-4.0482
X4.595Y-2.7065
X4.5957Y-4.0482
X4.627Y-2.7065
X4.6277Y-4.0482
X4.659Y-2.7065
X4.6597Y-4.0482
X4.691Y-2.7065
X4.6917Y-4.0482
X4.721Y-2.7065
X4.7217Y-4.0482
X4.7518Y-2.7056
X4.7526Y-4.0474
X4.7838Y-2.7056
X4.7846Y-4.0474
X4.8158Y-2.7056
X4.8166Y-4.0474
X4.8478Y-2.7056
X4.8486Y-4.0474
X4.8778Y-2.7056
X4.8786Y-4.0474
X4.909Y-2.7065
X4.9097Y-4.0482
X4.941Y-2.7065
X4.9417Y-4.0482
X4.973Y-2.7085
X4.9737Y-4.0502
X5.005Y-2.7085
X5.0057Y-4.0502
X5.035Y-2.7085
X5.0357Y-4.0502
X5.067Y-2.7085
X5.0677Y-4.0502
X5.099Y-2.7085
X5.0997Y-4.0502
X5.131Y-2.7085
X5.1317Y-4.0502
X5.163Y-2.7085
X5.1637Y-4.0502
X5.193Y-2.7085
X5.1937Y-4.0502
X5.2238Y-2.7076
X5.2246Y-4.0494
X5.2558Y-2.7076
X5.2566Y-4.0494
X5.2878Y-2.7076
X5.2886Y-4.0494
X5.3201Y-2.7093
X5.3209Y-4.0511
X5.3501Y-2.7093
X5.3509Y-4.0511
X5.381Y-2.7085
X5.3817Y-4.0502
X5.413Y-2.7085
X5.4137Y-4.0502
X5.445Y-2.7085
X5.4457Y-4.0502
X5.477Y-2.7096
X5.4777Y-4.0514
T2
X5.5776Y-4.0809
T3
X2.9272Y-5.0151
X2.9272Y-5.1151
X2.9289Y-3.6729
X2.9289Y-3.7729
X3.0272Y-5.0151
X3.0272Y-5.1151
X3.0289Y-3.6729
X3.0289Y-3.7729
X3.1272Y-5.0151
X3.1272Y-5.1151
X3.1289Y-3.6729
X3.1289Y-3.7729
X3.2272Y-5.0151
X3.2272Y-5.1151
X3.2289Y-3.6729
X3.2289Y-3.7729
X3.3272Y-5.0151
X3.3272Y-5.1151
X3.3289Y-3.6729
X3.3289Y-3.7729
X3.4272Y-5.0151
X3.4272Y-5.1151
X3.4289Y-3.6729
X3.4289Y-3.7729
X3.5272Y-5.0151
X3.5272Y-5.1151
X3.5289Y-3.6729
X3.5289Y-3.7729
X3.6272Y-5.0151
X3.6272Y-5.1151
X3.6289Y-3.6729
X3.6289Y-3.7729
X3.7272Y-5.0151
X3.7272Y-5.1151
X3.7289Y-3.6729
X3.7289Y-3.7729
X3.8272Y-5.0151
X3.8272Y-5.1151
X3.8289Y-3.6729
X3.8289Y-3.7729
X3.9272Y-5.0151
X3.9272Y-5.1151
X3.9289Y-3.6729
X3.9289Y-3.7729
X4.0272Y-5.0151
X4.0272Y-5.1151
X4.0289Y-3.6729
X4.0289Y-3.7729
X4.1272Y-5.0151
X4.1272Y-5.1151
X4.1289Y-3.6729
X4.1289Y-3.7729
X4.2272Y-5.0151
X4.2272Y-5.1151
X4.2289Y-3.6729
X4.2289Y-3.7729
X4.3272Y-5.0151
X4.3272Y-5.1151
X4.3289Y-3.6729
X4.3289Y-3.7729
X4.4272Y-5.0151
X4.4272Y-5.1151
X4.4289Y-3.6729
X4.4289Y-3.7729
X4.5272Y-5.0151
X4.5272Y-5.1151
X4.5289Y-3.6729
X4.5289Y-3.7729
X4.6272Y-5.0151
X4.6272Y-5.1151
X4.6289Y-3.6729
X4.6289Y-3.7729
X4.7272Y-5.0151
X4.7272Y-5.1151
X4.7289Y-3.6729
X4.7289Y-3.7729
X4.8272Y-5.0151
X4.8272Y-5.1151
X4.8289Y-3.6729
X4.8289Y-3.7729
X4.9272Y-5.0151
X4.9272Y-5.1151
X4.9289Y-3.6729
X4.9289Y-3.7729
X5.0272Y-5.0151
X5.0272Y-5.1151
X5.0289Y-3.6729
X5.0289Y-3.7729
X5.1272Y-5.0151
X5.1272Y-5.1151
X5.1289Y-3.6729
X5.1289Y-3.7729
X5.2272Y-5.0151
X5.2272Y-5.1151
X5.2289Y-3.6729
X5.2289Y-3.7729
X5.3272Y-5.0151
X5.3272Y-5.1151
X5.3289Y-3.6729
X5.3289Y-3.7729
X5.4272Y-5.0151
X5.4272Y-5.1151
X5.4289Y-3.6729
X5.4289Y-3.7729
X5.5272Y-5.0151
X5.5272Y-5.1151
X5.5289Y-3.6729
X5.5289Y-3.7729
X5.6272Y-5.0151
X5.6272Y-5.1151
X5.6289Y-3.6729
X5.6289Y-3.7729
X5.7272Y-5.0151
X5.7272Y-5.1151
X5.7289Y-3.6729
X5.7289Y-3.7729
X5.8272Y-5.0151
X5.8272Y-5.1151
X5.8289Y-3.6729
X5.8289Y-3.7729
X5.9272Y-5.0151
X5.9272Y-5.1151
X5.9289Y-3.6729
X5.9289Y-3.7729
X6.0272Y-5.0151
X6.0272Y-5.1151
X6.0289Y-3.6729
X6.0289Y-3.7729
X6.1272Y-5.0151
X6.1272Y-5.1151
X6.1289Y-3.6729
X6.1289Y-3.7729
X6.2272Y-5.0151
X6.2272Y-5.1151
X6.2289Y-3.6729
X6.2289Y-3.7729
X6.3272Y-5.0151
X6.3272Y-5.1151
X6.3289Y-3.6729
X6.3289Y-3.7729
X6.4272Y-5.0151
X6.4272Y-5.1151
X6.4289Y-3.6729
X6.4289Y-3.7729
X6.5272Y-5.0151
X6.5272Y-5.1151
X6.5289Y-3.6729
X6.5289Y-3.7729
X6.6272Y-5.0151
X6.6272Y-5.1151
X6.6289Y-3.6729
X6.6289Y-3.7729
X6.7272Y-5.0151
X6.7272Y-5.1151
X6.7289Y-3.6729
X6.7289Y-3.7729
X6.8272Y-5.0151
X6.8272Y-5.1151
X6.8289Y-3.6729
X6.8289Y-3.7729
T4
X4.152Y-4.0809
T5
X4.1506Y-2.7301
X5.5758Y-2.7301
T0
M30
