%TF.GenerationSoftware,KiCad,Pcbnew,6.0.4-6f826c9f35~116~ubuntu20.04.1*%
%TF.CreationDate,2022-04-13T10:42:55+07:00*%
%TF.ProjectId,BTB2Header,42544232-4865-4616-9465-722e6b696361,rev?*%
%TF.SameCoordinates,Original*%
%TF.FileFunction,Legend,Top*%
%TF.FilePolarity,Positive*%
%FSLAX46Y46*%
G04 Gerber Fmt 4.6, Leading zero omitted, Abs format (unit mm)*
G04 Created by KiCad (PCBNEW 6.0.4-6f826c9f35~116~ubuntu20.04.1) date 2022-04-13 10:42:55*
%MOMM*%
%LPD*%
G01*
G04 APERTURE LIST*
%ADD10C,0.150000*%
%ADD11C,0.250000*%
%ADD12C,0.010000*%
%ADD13C,0.120000*%
G04 APERTURE END LIST*
D10*
X74314085Y-124693419D02*
X74361704Y-124645800D01*
X74456942Y-124598180D01*
X74695038Y-124598180D01*
X74790276Y-124645800D01*
X74837895Y-124693419D01*
X74885514Y-124788657D01*
X74885514Y-124883895D01*
X74837895Y-125026752D01*
X74266466Y-125598180D01*
X74885514Y-125598180D01*
X109324876Y-124471180D02*
X109943923Y-124471180D01*
X109610590Y-124852133D01*
X109753447Y-124852133D01*
X109848685Y-124899752D01*
X109896304Y-124947371D01*
X109943923Y-125042609D01*
X109943923Y-125280704D01*
X109896304Y-125375942D01*
X109848685Y-125423561D01*
X109753447Y-125471180D01*
X109467733Y-125471180D01*
X109372495Y-125423561D01*
X109324876Y-125375942D01*
X110562971Y-124471180D02*
X110658209Y-124471180D01*
X110753447Y-124518800D01*
X110801066Y-124566419D01*
X110848685Y-124661657D01*
X110896304Y-124852133D01*
X110896304Y-125090228D01*
X110848685Y-125280704D01*
X110801066Y-125375942D01*
X110753447Y-125423561D01*
X110658209Y-125471180D01*
X110562971Y-125471180D01*
X110467733Y-125423561D01*
X110420114Y-125375942D01*
X110372495Y-125280704D01*
X110324876Y-125090228D01*
X110324876Y-124852133D01*
X110372495Y-124661657D01*
X110420114Y-124566419D01*
X110467733Y-124518800D01*
X110562971Y-124471180D01*
X164649638Y-83264180D02*
X164649638Y-82264180D01*
X164649638Y-82740371D02*
X165221066Y-82740371D01*
X165221066Y-83264180D02*
X165221066Y-82264180D01*
X166125828Y-83264180D02*
X166125828Y-82740371D01*
X166078209Y-82645133D01*
X165982971Y-82597514D01*
X165792495Y-82597514D01*
X165697257Y-82645133D01*
X166125828Y-83216561D02*
X166030590Y-83264180D01*
X165792495Y-83264180D01*
X165697257Y-83216561D01*
X165649638Y-83121323D01*
X165649638Y-83026085D01*
X165697257Y-82930847D01*
X165792495Y-82883228D01*
X166030590Y-82883228D01*
X166125828Y-82835609D01*
X166602019Y-82597514D02*
X166602019Y-83264180D01*
X166602019Y-82692752D02*
X166649638Y-82645133D01*
X166744876Y-82597514D01*
X166887733Y-82597514D01*
X166982971Y-82645133D01*
X167030590Y-82740371D01*
X167030590Y-83264180D01*
X167459161Y-83216561D02*
X167554400Y-83264180D01*
X167744876Y-83264180D01*
X167840114Y-83216561D01*
X167887733Y-83121323D01*
X167887733Y-83073704D01*
X167840114Y-82978466D01*
X167744876Y-82930847D01*
X167602019Y-82930847D01*
X167506780Y-82883228D01*
X167459161Y-82787990D01*
X167459161Y-82740371D01*
X167506780Y-82645133D01*
X167602019Y-82597514D01*
X167744876Y-82597514D01*
X167840114Y-82645133D01*
X169411542Y-82740371D02*
X169554400Y-82787990D01*
X169602019Y-82835609D01*
X169649638Y-82930847D01*
X169649638Y-83073704D01*
X169602019Y-83168942D01*
X169554400Y-83216561D01*
X169459161Y-83264180D01*
X169078209Y-83264180D01*
X169078209Y-82264180D01*
X169411542Y-82264180D01*
X169506780Y-82311800D01*
X169554400Y-82359419D01*
X169602019Y-82454657D01*
X169602019Y-82549895D01*
X169554400Y-82645133D01*
X169506780Y-82692752D01*
X169411542Y-82740371D01*
X169078209Y-82740371D01*
X170506780Y-83264180D02*
X170506780Y-82740371D01*
X170459161Y-82645133D01*
X170363923Y-82597514D01*
X170173447Y-82597514D01*
X170078209Y-82645133D01*
X170506780Y-83216561D02*
X170411542Y-83264180D01*
X170173447Y-83264180D01*
X170078209Y-83216561D01*
X170030590Y-83121323D01*
X170030590Y-83026085D01*
X170078209Y-82930847D01*
X170173447Y-82883228D01*
X170411542Y-82883228D01*
X170506780Y-82835609D01*
X170982971Y-83264180D02*
X170982971Y-82597514D01*
X170982971Y-82264180D02*
X170935352Y-82311800D01*
X170982971Y-82359419D01*
X171030590Y-82311800D01*
X170982971Y-82264180D01*
X170982971Y-82359419D01*
X171840114Y-83216561D02*
X171744876Y-83264180D01*
X171554400Y-83264180D01*
X171459161Y-83216561D01*
X171411542Y-83121323D01*
X171411542Y-82740371D01*
X171459161Y-82645133D01*
X171554400Y-82597514D01*
X171744876Y-82597514D01*
X171840114Y-82645133D01*
X171887733Y-82740371D01*
X171887733Y-82835609D01*
X171411542Y-82930847D01*
X172316304Y-83264180D02*
X172316304Y-82597514D01*
X172316304Y-82787990D02*
X172363923Y-82692752D01*
X172411542Y-82645133D01*
X172506780Y-82597514D01*
X172602019Y-82597514D01*
X163697257Y-83969419D02*
X163744876Y-83921800D01*
X163840114Y-83874180D01*
X164078209Y-83874180D01*
X164173447Y-83921800D01*
X164221066Y-83969419D01*
X164268685Y-84064657D01*
X164268685Y-84159895D01*
X164221066Y-84302752D01*
X163649638Y-84874180D01*
X164268685Y-84874180D01*
X164887733Y-83874180D02*
X164982971Y-83874180D01*
X165078209Y-83921800D01*
X165125828Y-83969419D01*
X165173447Y-84064657D01*
X165221066Y-84255133D01*
X165221066Y-84493228D01*
X165173447Y-84683704D01*
X165125828Y-84778942D01*
X165078209Y-84826561D01*
X164982971Y-84874180D01*
X164887733Y-84874180D01*
X164792495Y-84826561D01*
X164744876Y-84778942D01*
X164697257Y-84683704D01*
X164649638Y-84493228D01*
X164649638Y-84255133D01*
X164697257Y-84064657D01*
X164744876Y-83969419D01*
X164792495Y-83921800D01*
X164887733Y-83874180D01*
X165602019Y-83969419D02*
X165649638Y-83921800D01*
X165744876Y-83874180D01*
X165982971Y-83874180D01*
X166078209Y-83921800D01*
X166125828Y-83969419D01*
X166173447Y-84064657D01*
X166173447Y-84159895D01*
X166125828Y-84302752D01*
X165554400Y-84874180D01*
X166173447Y-84874180D01*
X166554400Y-83969419D02*
X166602019Y-83921800D01*
X166697257Y-83874180D01*
X166935352Y-83874180D01*
X167030590Y-83921800D01*
X167078209Y-83969419D01*
X167125828Y-84064657D01*
X167125828Y-84159895D01*
X167078209Y-84302752D01*
X166506780Y-84874180D01*
X167125828Y-84874180D01*
X167554400Y-84493228D02*
X168316304Y-84493228D01*
X168982971Y-83874180D02*
X169078209Y-83874180D01*
X169173447Y-83921800D01*
X169221066Y-83969419D01*
X169268685Y-84064657D01*
X169316304Y-84255133D01*
X169316304Y-84493228D01*
X169268685Y-84683704D01*
X169221066Y-84778942D01*
X169173447Y-84826561D01*
X169078209Y-84874180D01*
X168982971Y-84874180D01*
X168887733Y-84826561D01*
X168840114Y-84778942D01*
X168792495Y-84683704D01*
X168744876Y-84493228D01*
X168744876Y-84255133D01*
X168792495Y-84064657D01*
X168840114Y-83969419D01*
X168887733Y-83921800D01*
X168982971Y-83874180D01*
X170173447Y-84207514D02*
X170173447Y-84874180D01*
X169935352Y-83826561D02*
X169697257Y-84540847D01*
X170316304Y-84540847D01*
X170697257Y-84493228D02*
X171459161Y-84493228D01*
X172459161Y-84874180D02*
X171887733Y-84874180D01*
X172173447Y-84874180D02*
X172173447Y-83874180D01*
X172078209Y-84017038D01*
X171982971Y-84112276D01*
X171887733Y-84159895D01*
X173411542Y-84874180D02*
X172840114Y-84874180D01*
X173125828Y-84874180D02*
X173125828Y-83874180D01*
X173030590Y-84017038D01*
X172935352Y-84112276D01*
X172840114Y-84159895D01*
X160074076Y-124369580D02*
X160740742Y-124369580D01*
X160312171Y-125369580D01*
X161312171Y-124369580D02*
X161407409Y-124369580D01*
X161502647Y-124417200D01*
X161550266Y-124464819D01*
X161597885Y-124560057D01*
X161645504Y-124750533D01*
X161645504Y-124988628D01*
X161597885Y-125179104D01*
X161550266Y-125274342D01*
X161502647Y-125321961D01*
X161407409Y-125369580D01*
X161312171Y-125369580D01*
X161216933Y-125321961D01*
X161169314Y-125274342D01*
X161121695Y-125179104D01*
X161074076Y-124988628D01*
X161074076Y-124750533D01*
X161121695Y-124560057D01*
X161169314Y-124464819D01*
X161216933Y-124417200D01*
X161312171Y-124369580D01*
X162614076Y-90333580D02*
X163280742Y-90333580D01*
X162852171Y-91333580D01*
X164185504Y-91333580D02*
X163614076Y-91333580D01*
X163899790Y-91333580D02*
X163899790Y-90333580D01*
X163804552Y-90476438D01*
X163709314Y-90571676D01*
X163614076Y-90619295D01*
X147923285Y-124420380D02*
X147732809Y-124420380D01*
X147637571Y-124468000D01*
X147589952Y-124515619D01*
X147494714Y-124658476D01*
X147447095Y-124848952D01*
X147447095Y-125229904D01*
X147494714Y-125325142D01*
X147542333Y-125372761D01*
X147637571Y-125420380D01*
X147828047Y-125420380D01*
X147923285Y-125372761D01*
X147970904Y-125325142D01*
X148018523Y-125229904D01*
X148018523Y-124991809D01*
X147970904Y-124896571D01*
X147923285Y-124848952D01*
X147828047Y-124801333D01*
X147637571Y-124801333D01*
X147542333Y-124848952D01*
X147494714Y-124896571D01*
X147447095Y-124991809D01*
X148637571Y-124420380D02*
X148732809Y-124420380D01*
X148828047Y-124468000D01*
X148875666Y-124515619D01*
X148923285Y-124610857D01*
X148970904Y-124801333D01*
X148970904Y-125039428D01*
X148923285Y-125229904D01*
X148875666Y-125325142D01*
X148828047Y-125372761D01*
X148732809Y-125420380D01*
X148637571Y-125420380D01*
X148542333Y-125372761D01*
X148494714Y-125325142D01*
X148447095Y-125229904D01*
X148399476Y-125039428D01*
X148399476Y-124801333D01*
X148447095Y-124610857D01*
X148494714Y-124515619D01*
X148542333Y-124468000D01*
X148637571Y-124420380D01*
X87033123Y-91333580D02*
X86461695Y-91333580D01*
X86747409Y-91333580D02*
X86747409Y-90333580D01*
X86652171Y-90476438D01*
X86556933Y-90571676D01*
X86461695Y-90619295D01*
X87985504Y-91333580D02*
X87414076Y-91333580D01*
X87699790Y-91333580D02*
X87699790Y-90333580D01*
X87604552Y-90476438D01*
X87509314Y-90571676D01*
X87414076Y-90619295D01*
X122650285Y-124804514D02*
X122650285Y-125471180D01*
X122412190Y-124423561D02*
X122174095Y-125137847D01*
X122793142Y-125137847D01*
X123364571Y-124471180D02*
X123459809Y-124471180D01*
X123555047Y-124518800D01*
X123602666Y-124566419D01*
X123650285Y-124661657D01*
X123697904Y-124852133D01*
X123697904Y-125090228D01*
X123650285Y-125280704D01*
X123602666Y-125375942D01*
X123555047Y-125423561D01*
X123459809Y-125471180D01*
X123364571Y-125471180D01*
X123269333Y-125423561D01*
X123221714Y-125375942D01*
X123174095Y-125280704D01*
X123126476Y-125090228D01*
X123126476Y-124852133D01*
X123174095Y-124661657D01*
X123221714Y-124566419D01*
X123269333Y-124518800D01*
X123364571Y-124471180D01*
X150539485Y-90333580D02*
X150349009Y-90333580D01*
X150253771Y-90381200D01*
X150206152Y-90428819D01*
X150110914Y-90571676D01*
X150063295Y-90762152D01*
X150063295Y-91143104D01*
X150110914Y-91238342D01*
X150158533Y-91285961D01*
X150253771Y-91333580D01*
X150444247Y-91333580D01*
X150539485Y-91285961D01*
X150587104Y-91238342D01*
X150634723Y-91143104D01*
X150634723Y-90905009D01*
X150587104Y-90809771D01*
X150539485Y-90762152D01*
X150444247Y-90714533D01*
X150253771Y-90714533D01*
X150158533Y-90762152D01*
X150110914Y-90809771D01*
X150063295Y-90905009D01*
X151587104Y-91333580D02*
X151015676Y-91333580D01*
X151301390Y-91333580D02*
X151301390Y-90333580D01*
X151206152Y-90476438D01*
X151110914Y-90571676D01*
X151015676Y-90619295D01*
X165056038Y-117960580D02*
X165056038Y-116960580D01*
X165056038Y-117436771D02*
X165627466Y-117436771D01*
X165627466Y-117960580D02*
X165627466Y-116960580D01*
X166532228Y-117960580D02*
X166532228Y-117436771D01*
X166484609Y-117341533D01*
X166389371Y-117293914D01*
X166198895Y-117293914D01*
X166103657Y-117341533D01*
X166532228Y-117912961D02*
X166436990Y-117960580D01*
X166198895Y-117960580D01*
X166103657Y-117912961D01*
X166056038Y-117817723D01*
X166056038Y-117722485D01*
X166103657Y-117627247D01*
X166198895Y-117579628D01*
X166436990Y-117579628D01*
X166532228Y-117532009D01*
X167008419Y-117293914D02*
X167008419Y-117960580D01*
X167008419Y-117389152D02*
X167056038Y-117341533D01*
X167151276Y-117293914D01*
X167294133Y-117293914D01*
X167389371Y-117341533D01*
X167436990Y-117436771D01*
X167436990Y-117960580D01*
X167865561Y-117912961D02*
X167960800Y-117960580D01*
X168151276Y-117960580D01*
X168246514Y-117912961D01*
X168294133Y-117817723D01*
X168294133Y-117770104D01*
X168246514Y-117674866D01*
X168151276Y-117627247D01*
X168008419Y-117627247D01*
X167913180Y-117579628D01*
X167865561Y-117484390D01*
X167865561Y-117436771D01*
X167913180Y-117341533D01*
X168008419Y-117293914D01*
X168151276Y-117293914D01*
X168246514Y-117341533D01*
X169817942Y-117436771D02*
X169960800Y-117484390D01*
X170008419Y-117532009D01*
X170056038Y-117627247D01*
X170056038Y-117770104D01*
X170008419Y-117865342D01*
X169960800Y-117912961D01*
X169865561Y-117960580D01*
X169484609Y-117960580D01*
X169484609Y-116960580D01*
X169817942Y-116960580D01*
X169913180Y-117008200D01*
X169960800Y-117055819D01*
X170008419Y-117151057D01*
X170008419Y-117246295D01*
X169960800Y-117341533D01*
X169913180Y-117389152D01*
X169817942Y-117436771D01*
X169484609Y-117436771D01*
X170913180Y-117960580D02*
X170913180Y-117436771D01*
X170865561Y-117341533D01*
X170770323Y-117293914D01*
X170579847Y-117293914D01*
X170484609Y-117341533D01*
X170913180Y-117912961D02*
X170817942Y-117960580D01*
X170579847Y-117960580D01*
X170484609Y-117912961D01*
X170436990Y-117817723D01*
X170436990Y-117722485D01*
X170484609Y-117627247D01*
X170579847Y-117579628D01*
X170817942Y-117579628D01*
X170913180Y-117532009D01*
X171389371Y-117960580D02*
X171389371Y-117293914D01*
X171389371Y-116960580D02*
X171341752Y-117008200D01*
X171389371Y-117055819D01*
X171436990Y-117008200D01*
X171389371Y-116960580D01*
X171389371Y-117055819D01*
X172246514Y-117912961D02*
X172151276Y-117960580D01*
X171960800Y-117960580D01*
X171865561Y-117912961D01*
X171817942Y-117817723D01*
X171817942Y-117436771D01*
X171865561Y-117341533D01*
X171960800Y-117293914D01*
X172151276Y-117293914D01*
X172246514Y-117341533D01*
X172294133Y-117436771D01*
X172294133Y-117532009D01*
X171817942Y-117627247D01*
X172722704Y-117960580D02*
X172722704Y-117293914D01*
X172722704Y-117484390D02*
X172770323Y-117389152D01*
X172817942Y-117341533D01*
X172913180Y-117293914D01*
X173008419Y-117293914D01*
X164103657Y-118665819D02*
X164151276Y-118618200D01*
X164246514Y-118570580D01*
X164484609Y-118570580D01*
X164579847Y-118618200D01*
X164627466Y-118665819D01*
X164675085Y-118761057D01*
X164675085Y-118856295D01*
X164627466Y-118999152D01*
X164056038Y-119570580D01*
X164675085Y-119570580D01*
X165294133Y-118570580D02*
X165389371Y-118570580D01*
X165484609Y-118618200D01*
X165532228Y-118665819D01*
X165579847Y-118761057D01*
X165627466Y-118951533D01*
X165627466Y-119189628D01*
X165579847Y-119380104D01*
X165532228Y-119475342D01*
X165484609Y-119522961D01*
X165389371Y-119570580D01*
X165294133Y-119570580D01*
X165198895Y-119522961D01*
X165151276Y-119475342D01*
X165103657Y-119380104D01*
X165056038Y-119189628D01*
X165056038Y-118951533D01*
X165103657Y-118761057D01*
X165151276Y-118665819D01*
X165198895Y-118618200D01*
X165294133Y-118570580D01*
X166008419Y-118665819D02*
X166056038Y-118618200D01*
X166151276Y-118570580D01*
X166389371Y-118570580D01*
X166484609Y-118618200D01*
X166532228Y-118665819D01*
X166579847Y-118761057D01*
X166579847Y-118856295D01*
X166532228Y-118999152D01*
X165960800Y-119570580D01*
X166579847Y-119570580D01*
X166960800Y-118665819D02*
X167008419Y-118618200D01*
X167103657Y-118570580D01*
X167341752Y-118570580D01*
X167436990Y-118618200D01*
X167484609Y-118665819D01*
X167532228Y-118761057D01*
X167532228Y-118856295D01*
X167484609Y-118999152D01*
X166913180Y-119570580D01*
X167532228Y-119570580D01*
X167960800Y-119189628D02*
X168722704Y-119189628D01*
X169389371Y-118570580D02*
X169484609Y-118570580D01*
X169579847Y-118618200D01*
X169627466Y-118665819D01*
X169675085Y-118761057D01*
X169722704Y-118951533D01*
X169722704Y-119189628D01*
X169675085Y-119380104D01*
X169627466Y-119475342D01*
X169579847Y-119522961D01*
X169484609Y-119570580D01*
X169389371Y-119570580D01*
X169294133Y-119522961D01*
X169246514Y-119475342D01*
X169198895Y-119380104D01*
X169151276Y-119189628D01*
X169151276Y-118951533D01*
X169198895Y-118761057D01*
X169246514Y-118665819D01*
X169294133Y-118618200D01*
X169389371Y-118570580D01*
X170579847Y-118903914D02*
X170579847Y-119570580D01*
X170341752Y-118522961D02*
X170103657Y-119237247D01*
X170722704Y-119237247D01*
X171103657Y-119189628D02*
X171865561Y-119189628D01*
X172865561Y-119570580D02*
X172294133Y-119570580D01*
X172579847Y-119570580D02*
X172579847Y-118570580D01*
X172484609Y-118713438D01*
X172389371Y-118808676D01*
X172294133Y-118856295D01*
X173817942Y-119570580D02*
X173246514Y-119570580D01*
X173532228Y-119570580D02*
X173532228Y-118570580D01*
X173436990Y-118713438D01*
X173341752Y-118808676D01*
X173246514Y-118856295D01*
X125088685Y-90666914D02*
X125088685Y-91333580D01*
X124850590Y-90285961D02*
X124612495Y-91000247D01*
X125231542Y-91000247D01*
X126136304Y-91333580D02*
X125564876Y-91333580D01*
X125850590Y-91333580D02*
X125850590Y-90333580D01*
X125755352Y-90476438D01*
X125660114Y-90571676D01*
X125564876Y-90619295D01*
X96672495Y-124693419D02*
X96720114Y-124645800D01*
X96815352Y-124598180D01*
X97053447Y-124598180D01*
X97148685Y-124645800D01*
X97196304Y-124693419D01*
X97243923Y-124788657D01*
X97243923Y-124883895D01*
X97196304Y-125026752D01*
X96624876Y-125598180D01*
X97243923Y-125598180D01*
X97862971Y-124598180D02*
X97958209Y-124598180D01*
X98053447Y-124645800D01*
X98101066Y-124693419D01*
X98148685Y-124788657D01*
X98196304Y-124979133D01*
X98196304Y-125217228D01*
X98148685Y-125407704D01*
X98101066Y-125502942D01*
X98053447Y-125550561D01*
X97958209Y-125598180D01*
X97862971Y-125598180D01*
X97767733Y-125550561D01*
X97720114Y-125502942D01*
X97672495Y-125407704D01*
X97624876Y-125217228D01*
X97624876Y-124979133D01*
X97672495Y-124788657D01*
X97720114Y-124693419D01*
X97767733Y-124645800D01*
X97862971Y-124598180D01*
X111814076Y-90282780D02*
X112433123Y-90282780D01*
X112099790Y-90663733D01*
X112242647Y-90663733D01*
X112337885Y-90711352D01*
X112385504Y-90758971D01*
X112433123Y-90854209D01*
X112433123Y-91092304D01*
X112385504Y-91187542D01*
X112337885Y-91235161D01*
X112242647Y-91282780D01*
X111956933Y-91282780D01*
X111861695Y-91235161D01*
X111814076Y-91187542D01*
X113385504Y-91282780D02*
X112814076Y-91282780D01*
X113099790Y-91282780D02*
X113099790Y-90282780D01*
X113004552Y-90425638D01*
X112909314Y-90520876D01*
X112814076Y-90568495D01*
X74860114Y-91231980D02*
X74288685Y-91231980D01*
X74574400Y-91231980D02*
X74574400Y-90231980D01*
X74479161Y-90374838D01*
X74383923Y-90470076D01*
X74288685Y-90517695D01*
X84518523Y-125572780D02*
X83947095Y-125572780D01*
X84232809Y-125572780D02*
X84232809Y-124572780D01*
X84137571Y-124715638D01*
X84042333Y-124810876D01*
X83947095Y-124858495D01*
X85137571Y-124572780D02*
X85232809Y-124572780D01*
X85328047Y-124620400D01*
X85375666Y-124668019D01*
X85423285Y-124763257D01*
X85470904Y-124953733D01*
X85470904Y-125191828D01*
X85423285Y-125382304D01*
X85375666Y-125477542D01*
X85328047Y-125525161D01*
X85232809Y-125572780D01*
X85137571Y-125572780D01*
X85042333Y-125525161D01*
X84994714Y-125477542D01*
X84947095Y-125382304D01*
X84899476Y-125191828D01*
X84899476Y-124953733D01*
X84947095Y-124763257D01*
X84994714Y-124668019D01*
X85042333Y-124620400D01*
X85137571Y-124572780D01*
X135397904Y-124572780D02*
X134921714Y-124572780D01*
X134874095Y-125048971D01*
X134921714Y-125001352D01*
X135016952Y-124953733D01*
X135255047Y-124953733D01*
X135350285Y-125001352D01*
X135397904Y-125048971D01*
X135445523Y-125144209D01*
X135445523Y-125382304D01*
X135397904Y-125477542D01*
X135350285Y-125525161D01*
X135255047Y-125572780D01*
X135016952Y-125572780D01*
X134921714Y-125525161D01*
X134874095Y-125477542D01*
X136064571Y-124572780D02*
X136159809Y-124572780D01*
X136255047Y-124620400D01*
X136302666Y-124668019D01*
X136350285Y-124763257D01*
X136397904Y-124953733D01*
X136397904Y-125191828D01*
X136350285Y-125382304D01*
X136302666Y-125477542D01*
X136255047Y-125525161D01*
X136159809Y-125572780D01*
X136064571Y-125572780D01*
X135969333Y-125525161D01*
X135921714Y-125477542D01*
X135874095Y-125382304D01*
X135826476Y-125191828D01*
X135826476Y-124953733D01*
X135874095Y-124763257D01*
X135921714Y-124668019D01*
X135969333Y-124620400D01*
X136064571Y-124572780D01*
X99212495Y-90428819D02*
X99260114Y-90381200D01*
X99355352Y-90333580D01*
X99593447Y-90333580D01*
X99688685Y-90381200D01*
X99736304Y-90428819D01*
X99783923Y-90524057D01*
X99783923Y-90619295D01*
X99736304Y-90762152D01*
X99164876Y-91333580D01*
X99783923Y-91333580D01*
X100736304Y-91333580D02*
X100164876Y-91333580D01*
X100450590Y-91333580D02*
X100450590Y-90333580D01*
X100355352Y-90476438D01*
X100260114Y-90571676D01*
X100164876Y-90619295D01*
X137836304Y-90435180D02*
X137360114Y-90435180D01*
X137312495Y-90911371D01*
X137360114Y-90863752D01*
X137455352Y-90816133D01*
X137693447Y-90816133D01*
X137788685Y-90863752D01*
X137836304Y-90911371D01*
X137883923Y-91006609D01*
X137883923Y-91244704D01*
X137836304Y-91339942D01*
X137788685Y-91387561D01*
X137693447Y-91435180D01*
X137455352Y-91435180D01*
X137360114Y-91387561D01*
X137312495Y-91339942D01*
X138836304Y-91435180D02*
X138264876Y-91435180D01*
X138550590Y-91435180D02*
X138550590Y-90435180D01*
X138455352Y-90578038D01*
X138360114Y-90673276D01*
X138264876Y-90720895D01*
X172961371Y-124975952D02*
X172866133Y-124928333D01*
X172818514Y-124880714D01*
X172770895Y-124785476D01*
X172770895Y-124737857D01*
X172818514Y-124642619D01*
X172866133Y-124595000D01*
X172961371Y-124547380D01*
X173151847Y-124547380D01*
X173247085Y-124595000D01*
X173294704Y-124642619D01*
X173342323Y-124737857D01*
X173342323Y-124785476D01*
X173294704Y-124880714D01*
X173247085Y-124928333D01*
X173151847Y-124975952D01*
X172961371Y-124975952D01*
X172866133Y-125023571D01*
X172818514Y-125071190D01*
X172770895Y-125166428D01*
X172770895Y-125356904D01*
X172818514Y-125452142D01*
X172866133Y-125499761D01*
X172961371Y-125547380D01*
X173151847Y-125547380D01*
X173247085Y-125499761D01*
X173294704Y-125452142D01*
X173342323Y-125356904D01*
X173342323Y-125166428D01*
X173294704Y-125071190D01*
X173247085Y-125023571D01*
X173151847Y-124975952D01*
X173961371Y-124547380D02*
X174056609Y-124547380D01*
X174151847Y-124595000D01*
X174199466Y-124642619D01*
X174247085Y-124737857D01*
X174294704Y-124928333D01*
X174294704Y-125166428D01*
X174247085Y-125356904D01*
X174199466Y-125452142D01*
X174151847Y-125499761D01*
X174056609Y-125547380D01*
X173961371Y-125547380D01*
X173866133Y-125499761D01*
X173818514Y-125452142D01*
X173770895Y-125356904D01*
X173723276Y-125166428D01*
X173723276Y-124928333D01*
X173770895Y-124737857D01*
X173818514Y-124642619D01*
X173866133Y-124595000D01*
X173961371Y-124547380D01*
D11*
%TO.C,CN1*%
X106745525Y-65943518D02*
X106745525Y-67753518D01*
X142425525Y-69603518D02*
X142425525Y-70513518D01*
X106745525Y-67753518D02*
X107485525Y-67753518D01*
X140305525Y-65943518D02*
X140305525Y-67743518D01*
X106775525Y-70953518D02*
X107485525Y-70953518D01*
X106775525Y-72743518D02*
X106775525Y-70953518D01*
X142425525Y-65943518D02*
X140305525Y-65943518D01*
X104665525Y-72743518D02*
X106775525Y-72743518D01*
X140325525Y-70943518D02*
X140325525Y-72743518D01*
X142425525Y-70513518D02*
X141185525Y-72743518D01*
X104665525Y-68983518D02*
X104665525Y-65943518D01*
X140325525Y-70943518D02*
X139615525Y-70943518D01*
X104665525Y-72743518D02*
X104665525Y-69693518D01*
X142425525Y-65943518D02*
X142425525Y-69083518D01*
X104665525Y-65943518D02*
X106765525Y-65943518D01*
X141185525Y-72743518D02*
X140325525Y-72743518D01*
X140305525Y-67743518D02*
X139615525Y-67743518D01*
%TO.C,N1*%
G36*
X77619414Y-82914531D02*
G01*
X77703235Y-83359155D01*
X78012520Y-83486653D01*
X78321806Y-83614151D01*
X78692846Y-83361846D01*
X78796757Y-83291596D01*
X78890687Y-83228872D01*
X78970252Y-83176538D01*
X79031070Y-83137457D01*
X79068757Y-83114493D01*
X79079021Y-83109542D01*
X79097510Y-83122276D01*
X79137020Y-83157482D01*
X79193122Y-83210662D01*
X79261387Y-83277318D01*
X79337386Y-83352954D01*
X79416692Y-83433072D01*
X79494875Y-83513174D01*
X79567507Y-83588764D01*
X79630159Y-83655345D01*
X79678403Y-83708418D01*
X79707810Y-83743487D01*
X79714841Y-83755223D01*
X79704723Y-83776860D01*
X79676359Y-83824262D01*
X79632729Y-83892793D01*
X79576818Y-83977815D01*
X79511606Y-84074693D01*
X79473819Y-84129950D01*
X79404943Y-84230848D01*
X79343740Y-84321899D01*
X79293178Y-84398570D01*
X79256228Y-84456328D01*
X79235858Y-84490643D01*
X79232797Y-84497854D01*
X79239736Y-84518348D01*
X79258651Y-84566113D01*
X79286687Y-84634432D01*
X79320991Y-84716589D01*
X79358709Y-84805870D01*
X79396987Y-84895558D01*
X79432970Y-84978938D01*
X79463806Y-85049294D01*
X79486639Y-85099910D01*
X79498617Y-85124071D01*
X79499324Y-85125022D01*
X79518131Y-85129636D01*
X79568218Y-85139928D01*
X79644393Y-85154887D01*
X79741465Y-85173501D01*
X79854243Y-85194759D01*
X79920042Y-85207018D01*
X80040550Y-85229962D01*
X80149397Y-85251795D01*
X80241076Y-85271322D01*
X80310081Y-85287348D01*
X80350904Y-85298679D01*
X80359111Y-85302274D01*
X80367148Y-85326606D01*
X80373633Y-85381559D01*
X80378570Y-85460708D01*
X80381964Y-85557626D01*
X80383818Y-85665887D01*
X80384138Y-85779065D01*
X80382927Y-85890735D01*
X80380190Y-85994468D01*
X80375931Y-86083841D01*
X80370155Y-86152426D01*
X80362867Y-86193797D01*
X80358495Y-86202410D01*
X80332364Y-86212733D01*
X80276993Y-86227492D01*
X80199707Y-86244952D01*
X80107830Y-86263380D01*
X80075758Y-86269341D01*
X79921124Y-86297666D01*
X79798975Y-86320476D01*
X79705273Y-86338680D01*
X79635984Y-86353183D01*
X79587071Y-86364892D01*
X79554497Y-86374715D01*
X79534228Y-86383556D01*
X79522226Y-86392324D01*
X79520547Y-86394057D01*
X79503784Y-86421971D01*
X79478214Y-86476295D01*
X79446388Y-86550377D01*
X79410860Y-86637565D01*
X79374183Y-86731208D01*
X79338911Y-86824652D01*
X79307596Y-86911247D01*
X79282793Y-86984340D01*
X79267054Y-87037278D01*
X79262932Y-87063411D01*
X79263276Y-87064326D01*
X79277241Y-87085686D01*
X79308922Y-87132684D01*
X79354991Y-87200427D01*
X79412118Y-87284023D01*
X79476973Y-87378582D01*
X79495443Y-87405454D01*
X79561299Y-87502875D01*
X79619250Y-87591763D01*
X79666138Y-87667012D01*
X79698807Y-87723520D01*
X79714100Y-87756181D01*
X79714841Y-87760193D01*
X79701992Y-87781284D01*
X79666488Y-87823064D01*
X79612893Y-87881045D01*
X79545771Y-87950735D01*
X79469687Y-88027645D01*
X79389204Y-88107283D01*
X79308887Y-88185161D01*
X79233299Y-88256786D01*
X79167005Y-88317670D01*
X79114569Y-88363321D01*
X79080555Y-88389250D01*
X79071145Y-88393483D01*
X79049243Y-88383512D01*
X79004400Y-88356620D01*
X78943921Y-88317336D01*
X78897389Y-88285717D01*
X78813075Y-88227698D01*
X78713226Y-88159384D01*
X78613073Y-88091179D01*
X78559227Y-88054675D01*
X78376971Y-87931400D01*
X78223981Y-88014120D01*
X78154282Y-88050359D01*
X78095014Y-88078526D01*
X78054911Y-88094591D01*
X78044703Y-88096826D01*
X78032429Y-88080322D01*
X78008213Y-88033682D01*
X77973863Y-87961209D01*
X77931188Y-87867206D01*
X77881994Y-87755974D01*
X77828090Y-87631815D01*
X77771284Y-87499032D01*
X77713382Y-87361927D01*
X77656193Y-87224802D01*
X77601524Y-87091958D01*
X77551184Y-86967698D01*
X77506980Y-86856325D01*
X77470719Y-86762139D01*
X77444209Y-86689444D01*
X77429258Y-86642541D01*
X77426854Y-86626433D01*
X77445911Y-86605886D01*
X77487636Y-86572533D01*
X77543306Y-86533302D01*
X77547978Y-86530199D01*
X77691864Y-86415023D01*
X77807883Y-86280653D01*
X77895030Y-86131384D01*
X77952299Y-85971513D01*
X77978686Y-85805337D01*
X77973185Y-85637152D01*
X77934790Y-85471255D01*
X77862495Y-85311942D01*
X77841226Y-85277087D01*
X77730596Y-85136337D01*
X77599902Y-85023314D01*
X77453664Y-84938603D01*
X77296408Y-84882794D01*
X77132657Y-84856474D01*
X76966933Y-84860230D01*
X76803762Y-84894650D01*
X76647665Y-84960323D01*
X76503167Y-85057835D01*
X76458469Y-85097413D01*
X76344712Y-85221303D01*
X76261818Y-85351724D01*
X76204956Y-85497915D01*
X76173287Y-85642688D01*
X76165469Y-85805460D01*
X76191538Y-85969040D01*
X76248845Y-86127898D01*
X76334744Y-86276506D01*
X76446586Y-86409335D01*
X76581723Y-86520856D01*
X76599483Y-86532611D01*
X76655750Y-86571108D01*
X76698523Y-86604463D01*
X76718972Y-86625760D01*
X76719269Y-86626433D01*
X76714879Y-86649471D01*
X76697476Y-86701757D01*
X76668868Y-86778990D01*
X76630865Y-86876868D01*
X76585274Y-86991091D01*
X76533903Y-87117358D01*
X76478562Y-87251367D01*
X76421058Y-87388818D01*
X76363201Y-87525408D01*
X76306798Y-87656837D01*
X76253658Y-87778805D01*
X76205590Y-87887009D01*
X76164401Y-87977149D01*
X76131901Y-88044923D01*
X76109897Y-88086030D01*
X76101036Y-88096826D01*
X76073960Y-88088419D01*
X76023297Y-88065872D01*
X75957783Y-88033213D01*
X75921759Y-88014120D01*
X75768768Y-87931400D01*
X75586512Y-88054675D01*
X75493475Y-88117828D01*
X75391615Y-88187327D01*
X75296162Y-88252765D01*
X75248350Y-88285717D01*
X75181105Y-88330873D01*
X75124164Y-88366657D01*
X75084954Y-88388538D01*
X75072219Y-88393163D01*
X75053683Y-88380685D01*
X75012659Y-88345852D01*
X74953125Y-88292278D01*
X74879058Y-88223583D01*
X74794435Y-88143381D01*
X74740915Y-88091886D01*
X74647281Y-87999886D01*
X74566359Y-87917599D01*
X74501423Y-87848545D01*
X74455742Y-87796244D01*
X74432589Y-87764216D01*
X74430368Y-87757716D01*
X74440676Y-87732994D01*
X74469161Y-87683005D01*
X74512663Y-87612812D01*
X74568023Y-87527475D01*
X74632080Y-87432056D01*
X74650297Y-87405454D01*
X74716673Y-87308767D01*
X74776222Y-87221717D01*
X74825616Y-87149195D01*
X74861525Y-87096093D01*
X74880619Y-87067303D01*
X74882464Y-87064326D01*
X74879705Y-87041382D01*
X74865062Y-86990936D01*
X74841087Y-86919641D01*
X74810334Y-86834147D01*
X74775356Y-86741107D01*
X74738707Y-86647174D01*
X74702939Y-86558999D01*
X74670606Y-86483234D01*
X74644262Y-86426531D01*
X74626458Y-86395543D01*
X74625193Y-86394057D01*
X74614306Y-86385201D01*
X74595918Y-86376443D01*
X74565994Y-86366877D01*
X74520497Y-86355596D01*
X74455391Y-86341693D01*
X74366639Y-86324263D01*
X74250207Y-86302398D01*
X74102058Y-86275191D01*
X74069982Y-86269341D01*
X73974914Y-86250974D01*
X73892035Y-86233005D01*
X73828670Y-86217169D01*
X73792142Y-86205200D01*
X73787244Y-86202410D01*
X73779173Y-86177672D01*
X73772613Y-86122390D01*
X73767567Y-86042989D01*
X73764041Y-85945896D01*
X73762039Y-85837538D01*
X73761564Y-85724340D01*
X73762623Y-85612728D01*
X73765218Y-85509129D01*
X73769354Y-85419968D01*
X73775037Y-85351672D01*
X73782269Y-85310666D01*
X73786629Y-85302274D01*
X73810902Y-85293808D01*
X73866174Y-85280035D01*
X73946938Y-85262150D01*
X74047688Y-85241348D01*
X74162917Y-85218823D01*
X74225698Y-85207018D01*
X74344813Y-85184751D01*
X74451035Y-85164579D01*
X74539173Y-85147515D01*
X74604034Y-85134569D01*
X74640426Y-85126755D01*
X74646416Y-85125022D01*
X74656539Y-85105490D01*
X74677938Y-85058443D01*
X74707761Y-84990603D01*
X74743155Y-84908691D01*
X74781268Y-84819428D01*
X74819247Y-84729535D01*
X74854240Y-84645735D01*
X74883394Y-84574747D01*
X74903857Y-84523294D01*
X74912777Y-84498097D01*
X74912943Y-84496996D01*
X74902831Y-84477119D01*
X74874483Y-84431377D01*
X74830877Y-84364317D01*
X74774994Y-84280484D01*
X74709813Y-84184426D01*
X74671921Y-84129250D01*
X74602875Y-84028081D01*
X74541550Y-83936230D01*
X74490937Y-83858344D01*
X74454029Y-83799069D01*
X74433818Y-83763051D01*
X74430899Y-83754977D01*
X74443447Y-83736184D01*
X74478137Y-83696057D01*
X74530537Y-83639093D01*
X74596216Y-83569785D01*
X74670744Y-83492631D01*
X74749687Y-83412125D01*
X74828617Y-83332763D01*
X74903100Y-83259040D01*
X74968706Y-83195452D01*
X75021004Y-83146494D01*
X75055561Y-83116661D01*
X75067122Y-83109542D01*
X75085946Y-83119553D01*
X75130969Y-83147678D01*
X75197813Y-83191054D01*
X75282101Y-83246818D01*
X75379456Y-83312106D01*
X75452893Y-83361846D01*
X75823933Y-83614151D01*
X76442505Y-83359155D01*
X76526325Y-82914531D01*
X76610146Y-82469907D01*
X77535594Y-82469907D01*
X77619414Y-82914531D01*
G37*
D12*
X77619414Y-82914531D02*
X77703235Y-83359155D01*
X78012520Y-83486653D01*
X78321806Y-83614151D01*
X78692846Y-83361846D01*
X78796757Y-83291596D01*
X78890687Y-83228872D01*
X78970252Y-83176538D01*
X79031070Y-83137457D01*
X79068757Y-83114493D01*
X79079021Y-83109542D01*
X79097510Y-83122276D01*
X79137020Y-83157482D01*
X79193122Y-83210662D01*
X79261387Y-83277318D01*
X79337386Y-83352954D01*
X79416692Y-83433072D01*
X79494875Y-83513174D01*
X79567507Y-83588764D01*
X79630159Y-83655345D01*
X79678403Y-83708418D01*
X79707810Y-83743487D01*
X79714841Y-83755223D01*
X79704723Y-83776860D01*
X79676359Y-83824262D01*
X79632729Y-83892793D01*
X79576818Y-83977815D01*
X79511606Y-84074693D01*
X79473819Y-84129950D01*
X79404943Y-84230848D01*
X79343740Y-84321899D01*
X79293178Y-84398570D01*
X79256228Y-84456328D01*
X79235858Y-84490643D01*
X79232797Y-84497854D01*
X79239736Y-84518348D01*
X79258651Y-84566113D01*
X79286687Y-84634432D01*
X79320991Y-84716589D01*
X79358709Y-84805870D01*
X79396987Y-84895558D01*
X79432970Y-84978938D01*
X79463806Y-85049294D01*
X79486639Y-85099910D01*
X79498617Y-85124071D01*
X79499324Y-85125022D01*
X79518131Y-85129636D01*
X79568218Y-85139928D01*
X79644393Y-85154887D01*
X79741465Y-85173501D01*
X79854243Y-85194759D01*
X79920042Y-85207018D01*
X80040550Y-85229962D01*
X80149397Y-85251795D01*
X80241076Y-85271322D01*
X80310081Y-85287348D01*
X80350904Y-85298679D01*
X80359111Y-85302274D01*
X80367148Y-85326606D01*
X80373633Y-85381559D01*
X80378570Y-85460708D01*
X80381964Y-85557626D01*
X80383818Y-85665887D01*
X80384138Y-85779065D01*
X80382927Y-85890735D01*
X80380190Y-85994468D01*
X80375931Y-86083841D01*
X80370155Y-86152426D01*
X80362867Y-86193797D01*
X80358495Y-86202410D01*
X80332364Y-86212733D01*
X80276993Y-86227492D01*
X80199707Y-86244952D01*
X80107830Y-86263380D01*
X80075758Y-86269341D01*
X79921124Y-86297666D01*
X79798975Y-86320476D01*
X79705273Y-86338680D01*
X79635984Y-86353183D01*
X79587071Y-86364892D01*
X79554497Y-86374715D01*
X79534228Y-86383556D01*
X79522226Y-86392324D01*
X79520547Y-86394057D01*
X79503784Y-86421971D01*
X79478214Y-86476295D01*
X79446388Y-86550377D01*
X79410860Y-86637565D01*
X79374183Y-86731208D01*
X79338911Y-86824652D01*
X79307596Y-86911247D01*
X79282793Y-86984340D01*
X79267054Y-87037278D01*
X79262932Y-87063411D01*
X79263276Y-87064326D01*
X79277241Y-87085686D01*
X79308922Y-87132684D01*
X79354991Y-87200427D01*
X79412118Y-87284023D01*
X79476973Y-87378582D01*
X79495443Y-87405454D01*
X79561299Y-87502875D01*
X79619250Y-87591763D01*
X79666138Y-87667012D01*
X79698807Y-87723520D01*
X79714100Y-87756181D01*
X79714841Y-87760193D01*
X79701992Y-87781284D01*
X79666488Y-87823064D01*
X79612893Y-87881045D01*
X79545771Y-87950735D01*
X79469687Y-88027645D01*
X79389204Y-88107283D01*
X79308887Y-88185161D01*
X79233299Y-88256786D01*
X79167005Y-88317670D01*
X79114569Y-88363321D01*
X79080555Y-88389250D01*
X79071145Y-88393483D01*
X79049243Y-88383512D01*
X79004400Y-88356620D01*
X78943921Y-88317336D01*
X78897389Y-88285717D01*
X78813075Y-88227698D01*
X78713226Y-88159384D01*
X78613073Y-88091179D01*
X78559227Y-88054675D01*
X78376971Y-87931400D01*
X78223981Y-88014120D01*
X78154282Y-88050359D01*
X78095014Y-88078526D01*
X78054911Y-88094591D01*
X78044703Y-88096826D01*
X78032429Y-88080322D01*
X78008213Y-88033682D01*
X77973863Y-87961209D01*
X77931188Y-87867206D01*
X77881994Y-87755974D01*
X77828090Y-87631815D01*
X77771284Y-87499032D01*
X77713382Y-87361927D01*
X77656193Y-87224802D01*
X77601524Y-87091958D01*
X77551184Y-86967698D01*
X77506980Y-86856325D01*
X77470719Y-86762139D01*
X77444209Y-86689444D01*
X77429258Y-86642541D01*
X77426854Y-86626433D01*
X77445911Y-86605886D01*
X77487636Y-86572533D01*
X77543306Y-86533302D01*
X77547978Y-86530199D01*
X77691864Y-86415023D01*
X77807883Y-86280653D01*
X77895030Y-86131384D01*
X77952299Y-85971513D01*
X77978686Y-85805337D01*
X77973185Y-85637152D01*
X77934790Y-85471255D01*
X77862495Y-85311942D01*
X77841226Y-85277087D01*
X77730596Y-85136337D01*
X77599902Y-85023314D01*
X77453664Y-84938603D01*
X77296408Y-84882794D01*
X77132657Y-84856474D01*
X76966933Y-84860230D01*
X76803762Y-84894650D01*
X76647665Y-84960323D01*
X76503167Y-85057835D01*
X76458469Y-85097413D01*
X76344712Y-85221303D01*
X76261818Y-85351724D01*
X76204956Y-85497915D01*
X76173287Y-85642688D01*
X76165469Y-85805460D01*
X76191538Y-85969040D01*
X76248845Y-86127898D01*
X76334744Y-86276506D01*
X76446586Y-86409335D01*
X76581723Y-86520856D01*
X76599483Y-86532611D01*
X76655750Y-86571108D01*
X76698523Y-86604463D01*
X76718972Y-86625760D01*
X76719269Y-86626433D01*
X76714879Y-86649471D01*
X76697476Y-86701757D01*
X76668868Y-86778990D01*
X76630865Y-86876868D01*
X76585274Y-86991091D01*
X76533903Y-87117358D01*
X76478562Y-87251367D01*
X76421058Y-87388818D01*
X76363201Y-87525408D01*
X76306798Y-87656837D01*
X76253658Y-87778805D01*
X76205590Y-87887009D01*
X76164401Y-87977149D01*
X76131901Y-88044923D01*
X76109897Y-88086030D01*
X76101036Y-88096826D01*
X76073960Y-88088419D01*
X76023297Y-88065872D01*
X75957783Y-88033213D01*
X75921759Y-88014120D01*
X75768768Y-87931400D01*
X75586512Y-88054675D01*
X75493475Y-88117828D01*
X75391615Y-88187327D01*
X75296162Y-88252765D01*
X75248350Y-88285717D01*
X75181105Y-88330873D01*
X75124164Y-88366657D01*
X75084954Y-88388538D01*
X75072219Y-88393163D01*
X75053683Y-88380685D01*
X75012659Y-88345852D01*
X74953125Y-88292278D01*
X74879058Y-88223583D01*
X74794435Y-88143381D01*
X74740915Y-88091886D01*
X74647281Y-87999886D01*
X74566359Y-87917599D01*
X74501423Y-87848545D01*
X74455742Y-87796244D01*
X74432589Y-87764216D01*
X74430368Y-87757716D01*
X74440676Y-87732994D01*
X74469161Y-87683005D01*
X74512663Y-87612812D01*
X74568023Y-87527475D01*
X74632080Y-87432056D01*
X74650297Y-87405454D01*
X74716673Y-87308767D01*
X74776222Y-87221717D01*
X74825616Y-87149195D01*
X74861525Y-87096093D01*
X74880619Y-87067303D01*
X74882464Y-87064326D01*
X74879705Y-87041382D01*
X74865062Y-86990936D01*
X74841087Y-86919641D01*
X74810334Y-86834147D01*
X74775356Y-86741107D01*
X74738707Y-86647174D01*
X74702939Y-86558999D01*
X74670606Y-86483234D01*
X74644262Y-86426531D01*
X74626458Y-86395543D01*
X74625193Y-86394057D01*
X74614306Y-86385201D01*
X74595918Y-86376443D01*
X74565994Y-86366877D01*
X74520497Y-86355596D01*
X74455391Y-86341693D01*
X74366639Y-86324263D01*
X74250207Y-86302398D01*
X74102058Y-86275191D01*
X74069982Y-86269341D01*
X73974914Y-86250974D01*
X73892035Y-86233005D01*
X73828670Y-86217169D01*
X73792142Y-86205200D01*
X73787244Y-86202410D01*
X73779173Y-86177672D01*
X73772613Y-86122390D01*
X73767567Y-86042989D01*
X73764041Y-85945896D01*
X73762039Y-85837538D01*
X73761564Y-85724340D01*
X73762623Y-85612728D01*
X73765218Y-85509129D01*
X73769354Y-85419968D01*
X73775037Y-85351672D01*
X73782269Y-85310666D01*
X73786629Y-85302274D01*
X73810902Y-85293808D01*
X73866174Y-85280035D01*
X73946938Y-85262150D01*
X74047688Y-85241348D01*
X74162917Y-85218823D01*
X74225698Y-85207018D01*
X74344813Y-85184751D01*
X74451035Y-85164579D01*
X74539173Y-85147515D01*
X74604034Y-85134569D01*
X74640426Y-85126755D01*
X74646416Y-85125022D01*
X74656539Y-85105490D01*
X74677938Y-85058443D01*
X74707761Y-84990603D01*
X74743155Y-84908691D01*
X74781268Y-84819428D01*
X74819247Y-84729535D01*
X74854240Y-84645735D01*
X74883394Y-84574747D01*
X74903857Y-84523294D01*
X74912777Y-84498097D01*
X74912943Y-84496996D01*
X74902831Y-84477119D01*
X74874483Y-84431377D01*
X74830877Y-84364317D01*
X74774994Y-84280484D01*
X74709813Y-84184426D01*
X74671921Y-84129250D01*
X74602875Y-84028081D01*
X74541550Y-83936230D01*
X74490937Y-83858344D01*
X74454029Y-83799069D01*
X74433818Y-83763051D01*
X74430899Y-83754977D01*
X74443447Y-83736184D01*
X74478137Y-83696057D01*
X74530537Y-83639093D01*
X74596216Y-83569785D01*
X74670744Y-83492631D01*
X74749687Y-83412125D01*
X74828617Y-83332763D01*
X74903100Y-83259040D01*
X74968706Y-83195452D01*
X75021004Y-83146494D01*
X75055561Y-83116661D01*
X75067122Y-83109542D01*
X75085946Y-83119553D01*
X75130969Y-83147678D01*
X75197813Y-83191054D01*
X75282101Y-83246818D01*
X75379456Y-83312106D01*
X75452893Y-83361846D01*
X75823933Y-83614151D01*
X76442505Y-83359155D01*
X76526325Y-82914531D01*
X76610146Y-82469907D01*
X77535594Y-82469907D01*
X77619414Y-82914531D01*
D13*
%TO.C,J2*%
X75621676Y-128653877D02*
X73021676Y-128653877D01*
X74351676Y-131253877D02*
X73021676Y-131253877D01*
X73021676Y-131253877D02*
X73021676Y-129923877D01*
X75621676Y-131253877D02*
X174741676Y-131253877D01*
X73021676Y-126053877D02*
X174741676Y-126053877D01*
X174741676Y-131253877D02*
X174741676Y-126053877D01*
X75621676Y-131253877D02*
X75621676Y-128653877D01*
X73021676Y-128653877D02*
X73021676Y-126053877D01*
%TO.C,N1*%
G36*
X79346614Y-115782131D02*
G01*
X79430435Y-116226755D01*
X79739720Y-116354253D01*
X80049006Y-116481751D01*
X80420046Y-116229446D01*
X80523957Y-116159196D01*
X80617887Y-116096472D01*
X80697452Y-116044138D01*
X80758270Y-116005057D01*
X80795957Y-115982093D01*
X80806221Y-115977142D01*
X80824710Y-115989876D01*
X80864220Y-116025082D01*
X80920322Y-116078262D01*
X80988587Y-116144918D01*
X81064586Y-116220554D01*
X81143892Y-116300672D01*
X81222075Y-116380774D01*
X81294707Y-116456364D01*
X81357359Y-116522945D01*
X81405603Y-116576018D01*
X81435010Y-116611087D01*
X81442041Y-116622823D01*
X81431923Y-116644460D01*
X81403559Y-116691862D01*
X81359929Y-116760393D01*
X81304018Y-116845415D01*
X81238806Y-116942293D01*
X81201019Y-116997550D01*
X81132143Y-117098448D01*
X81070940Y-117189499D01*
X81020378Y-117266170D01*
X80983428Y-117323928D01*
X80963058Y-117358243D01*
X80959997Y-117365454D01*
X80966936Y-117385948D01*
X80985851Y-117433713D01*
X81013887Y-117502032D01*
X81048191Y-117584189D01*
X81085909Y-117673470D01*
X81124187Y-117763158D01*
X81160170Y-117846538D01*
X81191006Y-117916894D01*
X81213839Y-117967510D01*
X81225817Y-117991671D01*
X81226524Y-117992622D01*
X81245331Y-117997236D01*
X81295418Y-118007528D01*
X81371593Y-118022487D01*
X81468665Y-118041101D01*
X81581443Y-118062359D01*
X81647242Y-118074618D01*
X81767750Y-118097562D01*
X81876597Y-118119395D01*
X81968276Y-118138922D01*
X82037281Y-118154948D01*
X82078104Y-118166279D01*
X82086311Y-118169874D01*
X82094348Y-118194206D01*
X82100833Y-118249159D01*
X82105770Y-118328308D01*
X82109164Y-118425226D01*
X82111018Y-118533487D01*
X82111338Y-118646665D01*
X82110127Y-118758335D01*
X82107390Y-118862068D01*
X82103131Y-118951441D01*
X82097355Y-119020026D01*
X82090067Y-119061397D01*
X82085695Y-119070010D01*
X82059564Y-119080333D01*
X82004193Y-119095092D01*
X81926907Y-119112552D01*
X81835030Y-119130980D01*
X81802958Y-119136941D01*
X81648324Y-119165266D01*
X81526175Y-119188076D01*
X81432473Y-119206280D01*
X81363184Y-119220783D01*
X81314271Y-119232492D01*
X81281697Y-119242315D01*
X81261428Y-119251156D01*
X81249426Y-119259924D01*
X81247747Y-119261657D01*
X81230984Y-119289571D01*
X81205414Y-119343895D01*
X81173588Y-119417977D01*
X81138060Y-119505165D01*
X81101383Y-119598808D01*
X81066111Y-119692252D01*
X81034796Y-119778847D01*
X81009993Y-119851940D01*
X80994254Y-119904878D01*
X80990132Y-119931011D01*
X80990476Y-119931926D01*
X81004441Y-119953286D01*
X81036122Y-120000284D01*
X81082191Y-120068027D01*
X81139318Y-120151623D01*
X81204173Y-120246182D01*
X81222643Y-120273054D01*
X81288499Y-120370475D01*
X81346450Y-120459363D01*
X81393338Y-120534612D01*
X81426007Y-120591120D01*
X81441300Y-120623781D01*
X81442041Y-120627793D01*
X81429192Y-120648884D01*
X81393688Y-120690664D01*
X81340093Y-120748645D01*
X81272971Y-120818335D01*
X81196887Y-120895245D01*
X81116404Y-120974883D01*
X81036087Y-121052761D01*
X80960499Y-121124386D01*
X80894205Y-121185270D01*
X80841769Y-121230921D01*
X80807755Y-121256850D01*
X80798345Y-121261083D01*
X80776443Y-121251112D01*
X80731600Y-121224220D01*
X80671121Y-121184936D01*
X80624589Y-121153317D01*
X80540275Y-121095298D01*
X80440426Y-121026984D01*
X80340273Y-120958779D01*
X80286427Y-120922275D01*
X80104171Y-120799000D01*
X79951181Y-120881720D01*
X79881482Y-120917959D01*
X79822214Y-120946126D01*
X79782111Y-120962191D01*
X79771903Y-120964426D01*
X79759629Y-120947922D01*
X79735413Y-120901282D01*
X79701063Y-120828809D01*
X79658388Y-120734806D01*
X79609194Y-120623574D01*
X79555290Y-120499415D01*
X79498484Y-120366632D01*
X79440582Y-120229527D01*
X79383393Y-120092402D01*
X79328724Y-119959558D01*
X79278384Y-119835298D01*
X79234180Y-119723925D01*
X79197919Y-119629739D01*
X79171409Y-119557044D01*
X79156458Y-119510141D01*
X79154054Y-119494033D01*
X79173111Y-119473486D01*
X79214836Y-119440133D01*
X79270506Y-119400902D01*
X79275178Y-119397799D01*
X79419064Y-119282623D01*
X79535083Y-119148253D01*
X79622230Y-118998984D01*
X79679499Y-118839113D01*
X79705886Y-118672937D01*
X79700385Y-118504752D01*
X79661990Y-118338855D01*
X79589695Y-118179542D01*
X79568426Y-118144687D01*
X79457796Y-118003937D01*
X79327102Y-117890914D01*
X79180864Y-117806203D01*
X79023608Y-117750394D01*
X78859857Y-117724074D01*
X78694133Y-117727830D01*
X78530962Y-117762250D01*
X78374865Y-117827923D01*
X78230367Y-117925435D01*
X78185669Y-117965013D01*
X78071912Y-118088903D01*
X77989018Y-118219324D01*
X77932156Y-118365515D01*
X77900487Y-118510288D01*
X77892669Y-118673060D01*
X77918738Y-118836640D01*
X77976045Y-118995498D01*
X78061944Y-119144106D01*
X78173786Y-119276935D01*
X78308923Y-119388456D01*
X78326683Y-119400211D01*
X78382950Y-119438708D01*
X78425723Y-119472063D01*
X78446172Y-119493360D01*
X78446469Y-119494033D01*
X78442079Y-119517071D01*
X78424676Y-119569357D01*
X78396068Y-119646590D01*
X78358065Y-119744468D01*
X78312474Y-119858691D01*
X78261103Y-119984958D01*
X78205762Y-120118967D01*
X78148258Y-120256418D01*
X78090401Y-120393008D01*
X78033998Y-120524437D01*
X77980858Y-120646405D01*
X77932790Y-120754609D01*
X77891601Y-120844749D01*
X77859101Y-120912523D01*
X77837097Y-120953630D01*
X77828236Y-120964426D01*
X77801160Y-120956019D01*
X77750497Y-120933472D01*
X77684983Y-120900813D01*
X77648959Y-120881720D01*
X77495968Y-120799000D01*
X77313712Y-120922275D01*
X77220675Y-120985428D01*
X77118815Y-121054927D01*
X77023362Y-121120365D01*
X76975550Y-121153317D01*
X76908305Y-121198473D01*
X76851364Y-121234257D01*
X76812154Y-121256138D01*
X76799419Y-121260763D01*
X76780883Y-121248285D01*
X76739859Y-121213452D01*
X76680325Y-121159878D01*
X76606258Y-121091183D01*
X76521635Y-121010981D01*
X76468115Y-120959486D01*
X76374481Y-120867486D01*
X76293559Y-120785199D01*
X76228623Y-120716145D01*
X76182942Y-120663844D01*
X76159789Y-120631816D01*
X76157568Y-120625316D01*
X76167876Y-120600594D01*
X76196361Y-120550605D01*
X76239863Y-120480412D01*
X76295223Y-120395075D01*
X76359280Y-120299656D01*
X76377497Y-120273054D01*
X76443873Y-120176367D01*
X76503422Y-120089317D01*
X76552816Y-120016795D01*
X76588725Y-119963693D01*
X76607819Y-119934903D01*
X76609664Y-119931926D01*
X76606905Y-119908982D01*
X76592262Y-119858536D01*
X76568287Y-119787241D01*
X76537534Y-119701747D01*
X76502556Y-119608707D01*
X76465907Y-119514774D01*
X76430139Y-119426599D01*
X76397806Y-119350834D01*
X76371462Y-119294131D01*
X76353658Y-119263143D01*
X76352393Y-119261657D01*
X76341506Y-119252801D01*
X76323118Y-119244043D01*
X76293194Y-119234477D01*
X76247697Y-119223196D01*
X76182591Y-119209293D01*
X76093839Y-119191863D01*
X75977407Y-119169998D01*
X75829258Y-119142791D01*
X75797182Y-119136941D01*
X75702114Y-119118574D01*
X75619235Y-119100605D01*
X75555870Y-119084769D01*
X75519342Y-119072800D01*
X75514444Y-119070010D01*
X75506373Y-119045272D01*
X75499813Y-118989990D01*
X75494767Y-118910589D01*
X75491241Y-118813496D01*
X75489239Y-118705138D01*
X75488764Y-118591940D01*
X75489823Y-118480328D01*
X75492418Y-118376729D01*
X75496554Y-118287568D01*
X75502237Y-118219272D01*
X75509469Y-118178266D01*
X75513829Y-118169874D01*
X75538102Y-118161408D01*
X75593374Y-118147635D01*
X75674138Y-118129750D01*
X75774888Y-118108948D01*
X75890117Y-118086423D01*
X75952898Y-118074618D01*
X76072013Y-118052351D01*
X76178235Y-118032179D01*
X76266373Y-118015115D01*
X76331234Y-118002169D01*
X76367626Y-117994355D01*
X76373616Y-117992622D01*
X76383739Y-117973090D01*
X76405138Y-117926043D01*
X76434961Y-117858203D01*
X76470355Y-117776291D01*
X76508468Y-117687028D01*
X76546447Y-117597135D01*
X76581440Y-117513335D01*
X76610594Y-117442347D01*
X76631057Y-117390894D01*
X76639977Y-117365697D01*
X76640143Y-117364596D01*
X76630031Y-117344719D01*
X76601683Y-117298977D01*
X76558077Y-117231917D01*
X76502194Y-117148084D01*
X76437013Y-117052026D01*
X76399121Y-116996850D01*
X76330075Y-116895681D01*
X76268750Y-116803830D01*
X76218137Y-116725944D01*
X76181229Y-116666669D01*
X76161018Y-116630651D01*
X76158099Y-116622577D01*
X76170647Y-116603784D01*
X76205337Y-116563657D01*
X76257737Y-116506693D01*
X76323416Y-116437385D01*
X76397944Y-116360231D01*
X76476887Y-116279725D01*
X76555817Y-116200363D01*
X76630300Y-116126640D01*
X76695906Y-116063052D01*
X76748204Y-116014094D01*
X76782761Y-115984261D01*
X76794322Y-115977142D01*
X76813146Y-115987153D01*
X76858169Y-116015278D01*
X76925013Y-116058654D01*
X77009301Y-116114418D01*
X77106656Y-116179706D01*
X77180093Y-116229446D01*
X77551133Y-116481751D01*
X78169705Y-116226755D01*
X78253525Y-115782131D01*
X78337346Y-115337507D01*
X79262794Y-115337507D01*
X79346614Y-115782131D01*
G37*
D12*
X79346614Y-115782131D02*
X79430435Y-116226755D01*
X79739720Y-116354253D01*
X80049006Y-116481751D01*
X80420046Y-116229446D01*
X80523957Y-116159196D01*
X80617887Y-116096472D01*
X80697452Y-116044138D01*
X80758270Y-116005057D01*
X80795957Y-115982093D01*
X80806221Y-115977142D01*
X80824710Y-115989876D01*
X80864220Y-116025082D01*
X80920322Y-116078262D01*
X80988587Y-116144918D01*
X81064586Y-116220554D01*
X81143892Y-116300672D01*
X81222075Y-116380774D01*
X81294707Y-116456364D01*
X81357359Y-116522945D01*
X81405603Y-116576018D01*
X81435010Y-116611087D01*
X81442041Y-116622823D01*
X81431923Y-116644460D01*
X81403559Y-116691862D01*
X81359929Y-116760393D01*
X81304018Y-116845415D01*
X81238806Y-116942293D01*
X81201019Y-116997550D01*
X81132143Y-117098448D01*
X81070940Y-117189499D01*
X81020378Y-117266170D01*
X80983428Y-117323928D01*
X80963058Y-117358243D01*
X80959997Y-117365454D01*
X80966936Y-117385948D01*
X80985851Y-117433713D01*
X81013887Y-117502032D01*
X81048191Y-117584189D01*
X81085909Y-117673470D01*
X81124187Y-117763158D01*
X81160170Y-117846538D01*
X81191006Y-117916894D01*
X81213839Y-117967510D01*
X81225817Y-117991671D01*
X81226524Y-117992622D01*
X81245331Y-117997236D01*
X81295418Y-118007528D01*
X81371593Y-118022487D01*
X81468665Y-118041101D01*
X81581443Y-118062359D01*
X81647242Y-118074618D01*
X81767750Y-118097562D01*
X81876597Y-118119395D01*
X81968276Y-118138922D01*
X82037281Y-118154948D01*
X82078104Y-118166279D01*
X82086311Y-118169874D01*
X82094348Y-118194206D01*
X82100833Y-118249159D01*
X82105770Y-118328308D01*
X82109164Y-118425226D01*
X82111018Y-118533487D01*
X82111338Y-118646665D01*
X82110127Y-118758335D01*
X82107390Y-118862068D01*
X82103131Y-118951441D01*
X82097355Y-119020026D01*
X82090067Y-119061397D01*
X82085695Y-119070010D01*
X82059564Y-119080333D01*
X82004193Y-119095092D01*
X81926907Y-119112552D01*
X81835030Y-119130980D01*
X81802958Y-119136941D01*
X81648324Y-119165266D01*
X81526175Y-119188076D01*
X81432473Y-119206280D01*
X81363184Y-119220783D01*
X81314271Y-119232492D01*
X81281697Y-119242315D01*
X81261428Y-119251156D01*
X81249426Y-119259924D01*
X81247747Y-119261657D01*
X81230984Y-119289571D01*
X81205414Y-119343895D01*
X81173588Y-119417977D01*
X81138060Y-119505165D01*
X81101383Y-119598808D01*
X81066111Y-119692252D01*
X81034796Y-119778847D01*
X81009993Y-119851940D01*
X80994254Y-119904878D01*
X80990132Y-119931011D01*
X80990476Y-119931926D01*
X81004441Y-119953286D01*
X81036122Y-120000284D01*
X81082191Y-120068027D01*
X81139318Y-120151623D01*
X81204173Y-120246182D01*
X81222643Y-120273054D01*
X81288499Y-120370475D01*
X81346450Y-120459363D01*
X81393338Y-120534612D01*
X81426007Y-120591120D01*
X81441300Y-120623781D01*
X81442041Y-120627793D01*
X81429192Y-120648884D01*
X81393688Y-120690664D01*
X81340093Y-120748645D01*
X81272971Y-120818335D01*
X81196887Y-120895245D01*
X81116404Y-120974883D01*
X81036087Y-121052761D01*
X80960499Y-121124386D01*
X80894205Y-121185270D01*
X80841769Y-121230921D01*
X80807755Y-121256850D01*
X80798345Y-121261083D01*
X80776443Y-121251112D01*
X80731600Y-121224220D01*
X80671121Y-121184936D01*
X80624589Y-121153317D01*
X80540275Y-121095298D01*
X80440426Y-121026984D01*
X80340273Y-120958779D01*
X80286427Y-120922275D01*
X80104171Y-120799000D01*
X79951181Y-120881720D01*
X79881482Y-120917959D01*
X79822214Y-120946126D01*
X79782111Y-120962191D01*
X79771903Y-120964426D01*
X79759629Y-120947922D01*
X79735413Y-120901282D01*
X79701063Y-120828809D01*
X79658388Y-120734806D01*
X79609194Y-120623574D01*
X79555290Y-120499415D01*
X79498484Y-120366632D01*
X79440582Y-120229527D01*
X79383393Y-120092402D01*
X79328724Y-119959558D01*
X79278384Y-119835298D01*
X79234180Y-119723925D01*
X79197919Y-119629739D01*
X79171409Y-119557044D01*
X79156458Y-119510141D01*
X79154054Y-119494033D01*
X79173111Y-119473486D01*
X79214836Y-119440133D01*
X79270506Y-119400902D01*
X79275178Y-119397799D01*
X79419064Y-119282623D01*
X79535083Y-119148253D01*
X79622230Y-118998984D01*
X79679499Y-118839113D01*
X79705886Y-118672937D01*
X79700385Y-118504752D01*
X79661990Y-118338855D01*
X79589695Y-118179542D01*
X79568426Y-118144687D01*
X79457796Y-118003937D01*
X79327102Y-117890914D01*
X79180864Y-117806203D01*
X79023608Y-117750394D01*
X78859857Y-117724074D01*
X78694133Y-117727830D01*
X78530962Y-117762250D01*
X78374865Y-117827923D01*
X78230367Y-117925435D01*
X78185669Y-117965013D01*
X78071912Y-118088903D01*
X77989018Y-118219324D01*
X77932156Y-118365515D01*
X77900487Y-118510288D01*
X77892669Y-118673060D01*
X77918738Y-118836640D01*
X77976045Y-118995498D01*
X78061944Y-119144106D01*
X78173786Y-119276935D01*
X78308923Y-119388456D01*
X78326683Y-119400211D01*
X78382950Y-119438708D01*
X78425723Y-119472063D01*
X78446172Y-119493360D01*
X78446469Y-119494033D01*
X78442079Y-119517071D01*
X78424676Y-119569357D01*
X78396068Y-119646590D01*
X78358065Y-119744468D01*
X78312474Y-119858691D01*
X78261103Y-119984958D01*
X78205762Y-120118967D01*
X78148258Y-120256418D01*
X78090401Y-120393008D01*
X78033998Y-120524437D01*
X77980858Y-120646405D01*
X77932790Y-120754609D01*
X77891601Y-120844749D01*
X77859101Y-120912523D01*
X77837097Y-120953630D01*
X77828236Y-120964426D01*
X77801160Y-120956019D01*
X77750497Y-120933472D01*
X77684983Y-120900813D01*
X77648959Y-120881720D01*
X77495968Y-120799000D01*
X77313712Y-120922275D01*
X77220675Y-120985428D01*
X77118815Y-121054927D01*
X77023362Y-121120365D01*
X76975550Y-121153317D01*
X76908305Y-121198473D01*
X76851364Y-121234257D01*
X76812154Y-121256138D01*
X76799419Y-121260763D01*
X76780883Y-121248285D01*
X76739859Y-121213452D01*
X76680325Y-121159878D01*
X76606258Y-121091183D01*
X76521635Y-121010981D01*
X76468115Y-120959486D01*
X76374481Y-120867486D01*
X76293559Y-120785199D01*
X76228623Y-120716145D01*
X76182942Y-120663844D01*
X76159789Y-120631816D01*
X76157568Y-120625316D01*
X76167876Y-120600594D01*
X76196361Y-120550605D01*
X76239863Y-120480412D01*
X76295223Y-120395075D01*
X76359280Y-120299656D01*
X76377497Y-120273054D01*
X76443873Y-120176367D01*
X76503422Y-120089317D01*
X76552816Y-120016795D01*
X76588725Y-119963693D01*
X76607819Y-119934903D01*
X76609664Y-119931926D01*
X76606905Y-119908982D01*
X76592262Y-119858536D01*
X76568287Y-119787241D01*
X76537534Y-119701747D01*
X76502556Y-119608707D01*
X76465907Y-119514774D01*
X76430139Y-119426599D01*
X76397806Y-119350834D01*
X76371462Y-119294131D01*
X76353658Y-119263143D01*
X76352393Y-119261657D01*
X76341506Y-119252801D01*
X76323118Y-119244043D01*
X76293194Y-119234477D01*
X76247697Y-119223196D01*
X76182591Y-119209293D01*
X76093839Y-119191863D01*
X75977407Y-119169998D01*
X75829258Y-119142791D01*
X75797182Y-119136941D01*
X75702114Y-119118574D01*
X75619235Y-119100605D01*
X75555870Y-119084769D01*
X75519342Y-119072800D01*
X75514444Y-119070010D01*
X75506373Y-119045272D01*
X75499813Y-118989990D01*
X75494767Y-118910589D01*
X75491241Y-118813496D01*
X75489239Y-118705138D01*
X75488764Y-118591940D01*
X75489823Y-118480328D01*
X75492418Y-118376729D01*
X75496554Y-118287568D01*
X75502237Y-118219272D01*
X75509469Y-118178266D01*
X75513829Y-118169874D01*
X75538102Y-118161408D01*
X75593374Y-118147635D01*
X75674138Y-118129750D01*
X75774888Y-118108948D01*
X75890117Y-118086423D01*
X75952898Y-118074618D01*
X76072013Y-118052351D01*
X76178235Y-118032179D01*
X76266373Y-118015115D01*
X76331234Y-118002169D01*
X76367626Y-117994355D01*
X76373616Y-117992622D01*
X76383739Y-117973090D01*
X76405138Y-117926043D01*
X76434961Y-117858203D01*
X76470355Y-117776291D01*
X76508468Y-117687028D01*
X76546447Y-117597135D01*
X76581440Y-117513335D01*
X76610594Y-117442347D01*
X76631057Y-117390894D01*
X76639977Y-117365697D01*
X76640143Y-117364596D01*
X76630031Y-117344719D01*
X76601683Y-117298977D01*
X76558077Y-117231917D01*
X76502194Y-117148084D01*
X76437013Y-117052026D01*
X76399121Y-116996850D01*
X76330075Y-116895681D01*
X76268750Y-116803830D01*
X76218137Y-116725944D01*
X76181229Y-116666669D01*
X76161018Y-116630651D01*
X76158099Y-116622577D01*
X76170647Y-116603784D01*
X76205337Y-116563657D01*
X76257737Y-116506693D01*
X76323416Y-116437385D01*
X76397944Y-116360231D01*
X76476887Y-116279725D01*
X76555817Y-116200363D01*
X76630300Y-116126640D01*
X76695906Y-116063052D01*
X76748204Y-116014094D01*
X76782761Y-115984261D01*
X76794322Y-115977142D01*
X76813146Y-115987153D01*
X76858169Y-116015278D01*
X76925013Y-116058654D01*
X77009301Y-116114418D01*
X77106656Y-116179706D01*
X77180093Y-116229446D01*
X77551133Y-116481751D01*
X78169705Y-116226755D01*
X78253525Y-115782131D01*
X78337346Y-115337507D01*
X79262794Y-115337507D01*
X79346614Y-115782131D01*
D13*
%TO.C,J1*%
X73062825Y-91961118D02*
X73062825Y-93291118D01*
X73062825Y-97161118D02*
X174782825Y-97161118D01*
X174782825Y-91961118D02*
X174782825Y-97161118D01*
X74392825Y-91961118D02*
X73062825Y-91961118D01*
X75662825Y-94561118D02*
X73062825Y-94561118D01*
X73062825Y-94561118D02*
X73062825Y-97161118D01*
X75662825Y-91961118D02*
X75662825Y-94561118D01*
X75662825Y-91961118D02*
X174782825Y-91961118D01*
D11*
%TO.C,CN2*%
X142491876Y-100605277D02*
X139651876Y-100605277D01*
X104641876Y-100605277D02*
X104641876Y-103485277D01*
X104641876Y-103825277D02*
X104641876Y-106705277D01*
X142491876Y-106705277D02*
X142491876Y-100605277D01*
X139651876Y-106705277D02*
X142491876Y-106705277D01*
X104641876Y-106705277D02*
X107481876Y-106705277D01*
X107481876Y-100605277D02*
X104641876Y-100605277D01*
X107371876Y-107085277D02*
G75*
G03*
X107371876Y-107085277I-180000J0D01*
G01*
%TD*%
M02*
