%TF.GenerationSoftware,KiCad,Pcbnew,6.0.4-6f826c9f35~116~ubuntu20.04.1*%
%TF.CreationDate,2022-04-13T10:42:55+07:00*%
%TF.ProjectId,BTB2Header,42544232-4865-4616-9465-722e6b696361,rev?*%
%TF.SameCoordinates,Original*%
%TF.FileFunction,Paste,Top*%
%TF.FilePolarity,Positive*%
%FSLAX46Y46*%
G04 Gerber Fmt 4.6, Leading zero omitted, Abs format (unit mm)*
G04 Created by KiCad (PCBNEW 6.0.4-6f826c9f35~116~ubuntu20.04.1) date 2022-04-13 10:42:55*
%MOMM*%
%LPD*%
G01*
G04 APERTURE LIST*
%ADD10R,0.500000X2.400000*%
%ADD11R,0.500000X2.000000*%
G04 APERTURE END LIST*
D10*
%TO.C,CN1*%
X139125525Y-66943518D03*
X139125525Y-71743518D03*
X138325525Y-66943518D03*
X138325525Y-71743518D03*
X137525525Y-66943518D03*
X137525525Y-71743518D03*
X136725525Y-66943518D03*
X136725525Y-71743518D03*
X135925525Y-66943518D03*
X135925525Y-71743518D03*
X135125525Y-66943518D03*
X135125525Y-71743518D03*
X134325525Y-66943518D03*
X134325525Y-71743518D03*
X133525525Y-66943518D03*
X133525525Y-71743518D03*
X132725525Y-66943518D03*
X132725525Y-71743518D03*
X131925525Y-66943518D03*
X131925525Y-71743518D03*
X131125525Y-66943518D03*
X131125525Y-71743518D03*
X130325525Y-66943518D03*
X130325525Y-71743518D03*
X129525525Y-66943518D03*
X129525525Y-71743518D03*
X128725525Y-66943518D03*
X128725525Y-71743518D03*
X127925525Y-66943518D03*
X127925525Y-71743518D03*
X127125525Y-66943518D03*
X127125525Y-71743518D03*
X126325525Y-66943518D03*
X126325525Y-71743518D03*
X125525525Y-66943518D03*
X125525525Y-71743518D03*
X124725525Y-66943518D03*
X124725525Y-71743518D03*
X123925525Y-66943518D03*
X123925525Y-71743518D03*
X123125525Y-66943518D03*
X123125525Y-71743518D03*
X122325525Y-66943518D03*
X122325525Y-71743518D03*
X121525525Y-66943518D03*
X121525525Y-71743518D03*
X120725525Y-66943518D03*
X120725525Y-71743518D03*
X119925525Y-66943518D03*
X119925525Y-71743518D03*
X119125525Y-66943518D03*
X119125525Y-71743518D03*
X118325525Y-66943518D03*
X118325525Y-71743518D03*
X117525525Y-66943518D03*
X117525525Y-71743518D03*
X116725525Y-66943518D03*
X116725525Y-71743518D03*
X115925525Y-66943518D03*
X115925525Y-71743518D03*
X115125525Y-66943518D03*
X115125525Y-71743518D03*
X114325525Y-66943518D03*
X114325525Y-71743518D03*
X113525525Y-66943518D03*
X113525525Y-71743518D03*
X112725525Y-66943518D03*
X112725525Y-71743518D03*
X111925525Y-66943518D03*
X111925525Y-71743518D03*
X111125525Y-66943518D03*
X111125525Y-71743518D03*
X110325525Y-66943518D03*
X110325525Y-71743518D03*
X109525525Y-66943518D03*
X109525525Y-71743518D03*
X108725525Y-66943518D03*
X108725525Y-71743518D03*
X107925525Y-66943518D03*
X107925525Y-71743518D03*
%TD*%
D11*
%TO.C,CN2*%
X107971876Y-105855277D03*
X107971876Y-101455277D03*
X108771876Y-105855277D03*
X108771876Y-101455277D03*
X109571876Y-105855277D03*
X109571876Y-101455277D03*
X110371876Y-105855277D03*
X110371876Y-101455277D03*
X111171876Y-105855277D03*
X111171876Y-101455277D03*
X111971876Y-105855277D03*
X111971876Y-101455277D03*
X112771876Y-105855277D03*
X112771876Y-101455277D03*
X113571876Y-105855277D03*
X113571876Y-101455277D03*
X114371876Y-105855277D03*
X114371876Y-101455277D03*
X115171876Y-105855277D03*
X115171876Y-101455277D03*
X115971876Y-105855277D03*
X115971876Y-101455277D03*
X116771876Y-105855277D03*
X116771876Y-101455277D03*
X117571876Y-105855277D03*
X117571876Y-101455277D03*
X118371876Y-105855277D03*
X118371876Y-101455277D03*
X119171876Y-105855277D03*
X119171876Y-101455277D03*
X119971876Y-105855277D03*
X119971876Y-101455277D03*
X120771876Y-105855277D03*
X120771876Y-101455277D03*
X121571876Y-105855277D03*
X121571876Y-101455277D03*
X122371876Y-105855277D03*
X122371876Y-101455277D03*
X123171876Y-105855277D03*
X123171876Y-101455277D03*
X123971876Y-105855277D03*
X123971876Y-101455277D03*
X124771876Y-105855277D03*
X124771876Y-101455277D03*
X125571876Y-105855277D03*
X125571876Y-101455277D03*
X126371876Y-105855277D03*
X126371876Y-101455277D03*
X127171876Y-105855277D03*
X127171876Y-101455277D03*
X127971876Y-105855277D03*
X127971876Y-101455277D03*
X128771876Y-105855277D03*
X128771876Y-101455277D03*
X129571876Y-105855277D03*
X129571876Y-101455277D03*
X130371876Y-105855277D03*
X130371876Y-101455277D03*
X131171876Y-105855277D03*
X131171876Y-101455277D03*
X131971876Y-105855277D03*
X131971876Y-101455277D03*
X132771876Y-105855277D03*
X132771876Y-101455277D03*
X133571876Y-105855277D03*
X133571876Y-101455277D03*
X134371876Y-105855277D03*
X134371876Y-101455277D03*
X135171876Y-105855277D03*
X135171876Y-101455277D03*
X135971876Y-105855277D03*
X135971876Y-101455277D03*
X136771876Y-105855277D03*
X136771876Y-101455277D03*
X137571876Y-105855277D03*
X137571876Y-101455277D03*
X138371876Y-105855277D03*
X138371876Y-101455277D03*
X139171876Y-105855277D03*
X139171876Y-101455277D03*
%TD*%
M02*
