%TF.GenerationSoftware,KiCad,Pcbnew,6.0.4-6f826c9f35~116~ubuntu20.04.1*%
%TF.CreationDate,2022-04-13T10:42:55+07:00*%
%TF.ProjectId,BTB2Header,42544232-4865-4616-9465-722e6b696361,rev?*%
%TF.SameCoordinates,Original*%
%TF.FileFunction,Soldermask,Top*%
%TF.FilePolarity,Negative*%
%FSLAX46Y46*%
G04 Gerber Fmt 4.6, Leading zero omitted, Abs format (unit mm)*
G04 Created by KiCad (PCBNEW 6.0.4-6f826c9f35~116~ubuntu20.04.1) date 2022-04-13 10:42:55*
%MOMM*%
%LPD*%
G01*
G04 APERTURE LIST*
G04 Aperture macros list*
%AMRoundRect*
0 Rectangle with rounded corners*
0 $1 Rounding radius*
0 $2 $3 $4 $5 $6 $7 $8 $9 X,Y pos of 4 corners*
0 Add a 4 corners polygon primitive as box body*
4,1,4,$2,$3,$4,$5,$6,$7,$8,$9,$2,$3,0*
0 Add four circle primitives for the rounded corners*
1,1,$1+$1,$2,$3*
1,1,$1+$1,$4,$5*
1,1,$1+$1,$6,$7*
1,1,$1+$1,$8,$9*
0 Add four rect primitives between the rounded corners*
20,1,$1+$1,$2,$3,$4,$5,0*
20,1,$1+$1,$4,$5,$6,$7,0*
20,1,$1+$1,$6,$7,$8,$9,0*
20,1,$1+$1,$8,$9,$2,$3,0*%
G04 Aperture macros list end*
%ADD10C,1.187400*%
%ADD11C,1.700000*%
%ADD12RoundRect,0.200000X0.250000X1.200000X-0.250000X1.200000X-0.250000X-1.200000X0.250000X-1.200000X0*%
%ADD13RoundRect,0.200000X0.850000X-0.850000X0.850000X0.850000X-0.850000X0.850000X-0.850000X-0.850000X0*%
%ADD14O,2.100000X2.100000*%
%ADD15C,2.100000*%
%ADD16RoundRect,0.200000X-0.850000X0.850000X-0.850000X-0.850000X0.850000X-0.850000X0.850000X0.850000X0*%
%ADD17C,1.300000*%
%ADD18C,1.600000*%
%ADD19RoundRect,0.200000X0.250000X1.000000X-0.250000X1.000000X-0.250000X-1.000000X0.250000X-1.000000X0*%
G04 APERTURE END LIST*
D10*
%TO.C,REF\u002A\u002A*%
X124104400Y-98653600D03*
X129184400Y-98653600D03*
X127914400Y-98653600D03*
X126644400Y-98653600D03*
X125374400Y-98653600D03*
%TD*%
D11*
%TO.C,CN1*%
X141625525Y-69343518D03*
X105425525Y-69343518D03*
D12*
X139125525Y-66943518D03*
X139125525Y-71743518D03*
X138325525Y-66943518D03*
X138325525Y-71743518D03*
X137525525Y-66943518D03*
X137525525Y-71743518D03*
X136725525Y-66943518D03*
X136725525Y-71743518D03*
X135925525Y-66943518D03*
X135925525Y-71743518D03*
X135125525Y-66943518D03*
X135125525Y-71743518D03*
X134325525Y-66943518D03*
X134325525Y-71743518D03*
X133525525Y-66943518D03*
X133525525Y-71743518D03*
X132725525Y-66943518D03*
X132725525Y-71743518D03*
X131925525Y-66943518D03*
X131925525Y-71743518D03*
X131125525Y-66943518D03*
X131125525Y-71743518D03*
X130325525Y-66943518D03*
X130325525Y-71743518D03*
X129525525Y-66943518D03*
X129525525Y-71743518D03*
X128725525Y-66943518D03*
X128725525Y-71743518D03*
X127925525Y-66943518D03*
X127925525Y-71743518D03*
X127125525Y-66943518D03*
X127125525Y-71743518D03*
X126325525Y-66943518D03*
X126325525Y-71743518D03*
X125525525Y-66943518D03*
X125525525Y-71743518D03*
X124725525Y-66943518D03*
X124725525Y-71743518D03*
X123925525Y-66943518D03*
X123925525Y-71743518D03*
X123125525Y-66943518D03*
X123125525Y-71743518D03*
X122325525Y-66943518D03*
X122325525Y-71743518D03*
X121525525Y-66943518D03*
X121525525Y-71743518D03*
X120725525Y-66943518D03*
X120725525Y-71743518D03*
X119925525Y-66943518D03*
X119925525Y-71743518D03*
X119125525Y-66943518D03*
X119125525Y-71743518D03*
X118325525Y-66943518D03*
X118325525Y-71743518D03*
X117525525Y-66943518D03*
X117525525Y-71743518D03*
X116725525Y-66943518D03*
X116725525Y-71743518D03*
X115925525Y-66943518D03*
X115925525Y-71743518D03*
X115125525Y-66943518D03*
X115125525Y-71743518D03*
X114325525Y-66943518D03*
X114325525Y-71743518D03*
X113525525Y-66943518D03*
X113525525Y-71743518D03*
X112725525Y-66943518D03*
X112725525Y-71743518D03*
X111925525Y-66943518D03*
X111925525Y-71743518D03*
X111125525Y-66943518D03*
X111125525Y-71743518D03*
X110325525Y-66943518D03*
X110325525Y-71743518D03*
X109525525Y-66943518D03*
X109525525Y-71743518D03*
X108725525Y-66943518D03*
X108725525Y-71743518D03*
X107925525Y-66943518D03*
X107925525Y-71743518D03*
%TD*%
D13*
%TO.C,J2*%
X74351676Y-129923877D03*
D14*
X74351676Y-127383877D03*
X76891676Y-129923877D03*
X76891676Y-127383877D03*
X79431676Y-129923877D03*
X79431676Y-127383877D03*
X81971676Y-129923877D03*
X81971676Y-127383877D03*
X84511676Y-129923877D03*
X84511676Y-127383877D03*
X87051676Y-129923877D03*
X87051676Y-127383877D03*
X89591676Y-129923877D03*
X89591676Y-127383877D03*
X92131676Y-129923877D03*
X92131676Y-127383877D03*
X94671676Y-129923877D03*
X94671676Y-127383877D03*
X97211676Y-129923877D03*
X97211676Y-127383877D03*
X99751676Y-129923877D03*
X99751676Y-127383877D03*
X102291676Y-129923877D03*
X102291676Y-127383877D03*
X104831676Y-129923877D03*
X104831676Y-127383877D03*
X107371676Y-129923877D03*
X107371676Y-127383877D03*
X109911676Y-129923877D03*
X109911676Y-127383877D03*
X112451676Y-129923877D03*
X112451676Y-127383877D03*
X114991676Y-129923877D03*
X114991676Y-127383877D03*
X117531676Y-129923877D03*
X117531676Y-127383877D03*
X120071676Y-129923877D03*
X120071676Y-127383877D03*
X122611676Y-129923877D03*
X122611676Y-127383877D03*
X125151676Y-129923877D03*
X125151676Y-127383877D03*
X127691676Y-129923877D03*
X127691676Y-127383877D03*
X130231676Y-129923877D03*
X130231676Y-127383877D03*
X132771676Y-129923877D03*
X132771676Y-127383877D03*
X135311676Y-129923877D03*
X135311676Y-127383877D03*
X137851676Y-129923877D03*
X137851676Y-127383877D03*
X140391676Y-129923877D03*
X140391676Y-127383877D03*
X142931676Y-129923877D03*
X142931676Y-127383877D03*
X145471676Y-129923877D03*
X145471676Y-127383877D03*
X148011676Y-129923877D03*
X148011676Y-127383877D03*
X150551676Y-129923877D03*
X150551676Y-127383877D03*
X153091676Y-129923877D03*
X153091676Y-127383877D03*
X155631676Y-129923877D03*
X155631676Y-127383877D03*
X158171676Y-129923877D03*
X158171676Y-127383877D03*
X160711676Y-129923877D03*
X160711676Y-127383877D03*
X163251676Y-129923877D03*
X163251676Y-127383877D03*
X165791676Y-129923877D03*
X165791676Y-127383877D03*
X168331676Y-129923877D03*
X168331676Y-127383877D03*
X170871676Y-129923877D03*
X170871676Y-127383877D03*
X173411676Y-129923877D03*
X173411676Y-127383877D03*
%TD*%
D15*
%TO.C,J1*%
X74392825Y-95831118D03*
D16*
X74392825Y-93291118D03*
D14*
X76932825Y-95831118D03*
X76932825Y-93291118D03*
X79472825Y-95831118D03*
X79472825Y-93291118D03*
X82012825Y-95831118D03*
X82012825Y-93291118D03*
X84552825Y-95831118D03*
X84552825Y-93291118D03*
X87092825Y-95831118D03*
X87092825Y-93291118D03*
X89632825Y-95831118D03*
X89632825Y-93291118D03*
X92172825Y-95831118D03*
X92172825Y-93291118D03*
X94712825Y-95831118D03*
X94712825Y-93291118D03*
X97252825Y-95831118D03*
X97252825Y-93291118D03*
X99792825Y-95831118D03*
X99792825Y-93291118D03*
X102332825Y-95831118D03*
X102332825Y-93291118D03*
X104872825Y-95831118D03*
X104872825Y-93291118D03*
X107412825Y-95831118D03*
X107412825Y-93291118D03*
X109952825Y-95831118D03*
X109952825Y-93291118D03*
X112492825Y-95831118D03*
X112492825Y-93291118D03*
X115032825Y-95831118D03*
X115032825Y-93291118D03*
X117572825Y-95831118D03*
X117572825Y-93291118D03*
X120112825Y-95831118D03*
X120112825Y-93291118D03*
X122652825Y-95831118D03*
X122652825Y-93291118D03*
X125192825Y-95831118D03*
X125192825Y-93291118D03*
X127732825Y-95831118D03*
X127732825Y-93291118D03*
X130272825Y-95831118D03*
X130272825Y-93291118D03*
X132812825Y-95831118D03*
X132812825Y-93291118D03*
X135352825Y-95831118D03*
X135352825Y-93291118D03*
X137892825Y-95831118D03*
X137892825Y-93291118D03*
X140432825Y-95831118D03*
X140432825Y-93291118D03*
X142972825Y-95831118D03*
X142972825Y-93291118D03*
X145512825Y-95831118D03*
X145512825Y-93291118D03*
X148052825Y-95831118D03*
X148052825Y-93291118D03*
X150592825Y-95831118D03*
X150592825Y-93291118D03*
X153132825Y-95831118D03*
X153132825Y-93291118D03*
X155672825Y-95831118D03*
X155672825Y-93291118D03*
X158212825Y-95831118D03*
X158212825Y-93291118D03*
X160752825Y-95831118D03*
X160752825Y-93291118D03*
X163292825Y-95831118D03*
X163292825Y-93291118D03*
X165832825Y-95831118D03*
X165832825Y-93291118D03*
X168372825Y-95831118D03*
X168372825Y-93291118D03*
X170912825Y-95831118D03*
X170912825Y-93291118D03*
X173452825Y-95831118D03*
D15*
X173452825Y-93291118D03*
%TD*%
D17*
%TO.C,CN2*%
X141671876Y-103655277D03*
D18*
X105461676Y-103655277D03*
D19*
X107971876Y-105855277D03*
X107971876Y-101455277D03*
X108771876Y-105855277D03*
X108771876Y-101455277D03*
X109571876Y-105855277D03*
X109571876Y-101455277D03*
X110371876Y-105855277D03*
X110371876Y-101455277D03*
X111171876Y-105855277D03*
X111171876Y-101455277D03*
X111971876Y-105855277D03*
X111971876Y-101455277D03*
X112771876Y-105855277D03*
X112771876Y-101455277D03*
X113571876Y-105855277D03*
X113571876Y-101455277D03*
X114371876Y-105855277D03*
X114371876Y-101455277D03*
X115171876Y-105855277D03*
X115171876Y-101455277D03*
X115971876Y-105855277D03*
X115971876Y-101455277D03*
X116771876Y-105855277D03*
X116771876Y-101455277D03*
X117571876Y-105855277D03*
X117571876Y-101455277D03*
X118371876Y-105855277D03*
X118371876Y-101455277D03*
X119171876Y-105855277D03*
X119171876Y-101455277D03*
X119971876Y-105855277D03*
X119971876Y-101455277D03*
X120771876Y-105855277D03*
X120771876Y-101455277D03*
X121571876Y-105855277D03*
X121571876Y-101455277D03*
X122371876Y-105855277D03*
X122371876Y-101455277D03*
X123171876Y-105855277D03*
X123171876Y-101455277D03*
X123971876Y-105855277D03*
X123971876Y-101455277D03*
X124771876Y-105855277D03*
X124771876Y-101455277D03*
X125571876Y-105855277D03*
X125571876Y-101455277D03*
X126371876Y-105855277D03*
X126371876Y-101455277D03*
X127171876Y-105855277D03*
X127171876Y-101455277D03*
X127971876Y-105855277D03*
X127971876Y-101455277D03*
X128771876Y-105855277D03*
X128771876Y-101455277D03*
X129571876Y-105855277D03*
X129571876Y-101455277D03*
X130371876Y-105855277D03*
X130371876Y-101455277D03*
X131171876Y-105855277D03*
X131171876Y-101455277D03*
X131971876Y-105855277D03*
X131971876Y-101455277D03*
X132771876Y-105855277D03*
X132771876Y-101455277D03*
X133571876Y-105855277D03*
X133571876Y-101455277D03*
X134371876Y-105855277D03*
X134371876Y-101455277D03*
X135171876Y-105855277D03*
X135171876Y-101455277D03*
X135971876Y-105855277D03*
X135971876Y-101455277D03*
X136771876Y-105855277D03*
X136771876Y-101455277D03*
X137571876Y-105855277D03*
X137571876Y-101455277D03*
X138371876Y-105855277D03*
X138371876Y-101455277D03*
X139171876Y-105855277D03*
X139171876Y-101455277D03*
%TD*%
M02*
